G04 EAGLE Gerber RS-274X export*
G75*
%MOMM*%
%FSLAX34Y34*%
%LPD*%
%INSoldermask Top*%
%IPPOS*%
%AMOC8*
5,1,8,0,0,1.08239X$1,22.5*%
G01*
%ADD10R,1.203200X1.303200*%
%ADD11R,1.803200X1.603200*%
%ADD12R,1.303200X1.203200*%
%ADD13R,1.003200X1.003200*%
%ADD14R,1.403200X0.753200*%
%ADD15C,2.082800*%
%ADD16C,0.457909*%
%ADD17R,2.103200X1.303200*%
%ADD18R,0.603200X1.603200*%
%ADD19C,1.053200*%
%ADD20R,2.000000X1.700000*%
%ADD21R,2.700000X1.700000*%
%ADD22C,0.838200*%
%ADD23R,1.203200X2.003200*%
%ADD24R,0.833200X1.033200*%
%ADD25R,0.838200X1.473200*%


D10*
X44577Y70240D03*
X44577Y87240D03*
D11*
X50673Y204516D03*
X50673Y232516D03*
D12*
X42173Y264998D03*
X59173Y264998D03*
D13*
X58173Y251054D03*
X43173Y251054D03*
D12*
X42300Y279400D03*
X59300Y279400D03*
D10*
X132080Y72780D03*
X132080Y89780D03*
D12*
X135881Y185572D03*
X118881Y185572D03*
D10*
X132080Y9280D03*
X132080Y26280D03*
D13*
X132080Y40760D03*
X132080Y55760D03*
D14*
X104365Y209042D03*
X104365Y218542D03*
X104365Y228042D03*
X78363Y228042D03*
X78363Y209042D03*
D11*
X127229Y204034D03*
X127229Y232034D03*
D15*
X165100Y292100D03*
X165100Y266700D03*
X165100Y241300D03*
X165100Y215900D03*
X165100Y190500D03*
X165100Y165100D03*
X165100Y139700D03*
X165100Y114300D03*
X165100Y88900D03*
X165100Y63500D03*
X165100Y38100D03*
X165100Y12700D03*
X12700Y12700D03*
X12700Y38100D03*
X12700Y63500D03*
X12700Y88900D03*
X12700Y114300D03*
X12700Y139700D03*
X12700Y165100D03*
X12700Y190500D03*
X12700Y215900D03*
X12700Y241300D03*
X12700Y266700D03*
X12700Y292100D03*
D16*
X80971Y182811D02*
X84826Y178956D01*
X84505Y178635D01*
X80650Y182490D01*
X80971Y182811D01*
X77485Y179325D02*
X81340Y175470D01*
X81019Y175149D01*
X77164Y179004D01*
X77485Y179325D01*
X73998Y175839D02*
X77853Y171984D01*
X77532Y171663D01*
X73677Y175518D01*
X73998Y175839D01*
X70512Y172353D02*
X74367Y168498D01*
X74046Y168177D01*
X70191Y172032D01*
X70512Y172353D01*
X67026Y168867D02*
X70881Y165012D01*
X70560Y164691D01*
X66705Y168546D01*
X67026Y168867D01*
X63540Y165381D02*
X67395Y161526D01*
X67074Y161205D01*
X63219Y165060D01*
X63540Y165381D01*
X59733Y161574D02*
X63588Y157719D01*
X59733Y161574D02*
X60054Y161895D01*
X63909Y158040D01*
X63588Y157719D01*
X60102Y154233D02*
X56247Y158088D01*
X56568Y158409D01*
X60423Y154554D01*
X60102Y154233D01*
X56616Y150747D02*
X52761Y154602D01*
X53082Y154923D01*
X56937Y151068D01*
X56616Y150747D01*
X53130Y147260D02*
X49275Y151115D01*
X49596Y151436D01*
X53451Y147581D01*
X53130Y147260D01*
X49644Y143774D02*
X45789Y147629D01*
X46110Y147950D01*
X49965Y144095D01*
X49644Y143774D01*
X49644Y135626D02*
X45789Y131771D01*
X49644Y135626D02*
X49965Y135305D01*
X46110Y131450D01*
X45789Y131771D01*
X49275Y128285D02*
X53130Y132140D01*
X53451Y131819D01*
X49596Y127964D01*
X49275Y128285D01*
X52761Y124798D02*
X56616Y128653D01*
X56937Y128332D01*
X53082Y124477D01*
X52761Y124798D01*
X56247Y121312D02*
X60102Y125167D01*
X60423Y124846D01*
X56568Y120991D01*
X56247Y121312D01*
X59733Y117826D02*
X63588Y121681D01*
X63909Y121360D01*
X60054Y117505D01*
X59733Y117826D01*
X63219Y114340D02*
X67074Y118195D01*
X67395Y117874D01*
X63540Y114019D01*
X63219Y114340D01*
X67026Y110533D02*
X70881Y114388D01*
X67026Y110533D02*
X66705Y110854D01*
X70560Y114709D01*
X70881Y114388D01*
X74367Y110902D02*
X70512Y107047D01*
X70191Y107368D01*
X74046Y111223D01*
X74367Y110902D01*
X77853Y107416D02*
X73998Y103561D01*
X73677Y103882D01*
X77532Y107737D01*
X77853Y107416D01*
X81340Y103930D02*
X77485Y100075D01*
X77164Y100396D01*
X81019Y104251D01*
X81340Y103930D01*
X84826Y100444D02*
X80971Y96589D01*
X80650Y96910D01*
X84505Y100765D01*
X84826Y100444D01*
X92974Y100444D02*
X96829Y96589D01*
X92974Y100444D02*
X93295Y100765D01*
X97150Y96910D01*
X96829Y96589D01*
X100315Y100075D02*
X96460Y103930D01*
X96781Y104251D01*
X100636Y100396D01*
X100315Y100075D01*
X103802Y103561D02*
X99947Y107416D01*
X100268Y107737D01*
X104123Y103882D01*
X103802Y103561D01*
X107288Y107047D02*
X103433Y110902D01*
X103754Y111223D01*
X107609Y107368D01*
X107288Y107047D01*
X110774Y110533D02*
X106919Y114388D01*
X107240Y114709D01*
X111095Y110854D01*
X110774Y110533D01*
X114260Y114019D02*
X110405Y117874D01*
X110726Y118195D01*
X114581Y114340D01*
X114260Y114019D01*
X118067Y117826D02*
X114212Y121681D01*
X118067Y117826D02*
X117746Y117505D01*
X113891Y121360D01*
X114212Y121681D01*
X117698Y125167D02*
X121553Y121312D01*
X121232Y120991D01*
X117377Y124846D01*
X117698Y125167D01*
X121184Y128653D02*
X125039Y124798D01*
X124718Y124477D01*
X120863Y128332D01*
X121184Y128653D01*
X124670Y132140D02*
X128525Y128285D01*
X128204Y127964D01*
X124349Y131819D01*
X124670Y132140D01*
X128156Y135626D02*
X132011Y131771D01*
X131690Y131450D01*
X127835Y135305D01*
X128156Y135626D01*
X128156Y143774D02*
X132011Y147629D01*
X128156Y143774D02*
X127835Y144095D01*
X131690Y147950D01*
X132011Y147629D01*
X128525Y151115D02*
X124670Y147260D01*
X124349Y147581D01*
X128204Y151436D01*
X128525Y151115D01*
X125039Y154602D02*
X121184Y150747D01*
X120863Y151068D01*
X124718Y154923D01*
X125039Y154602D01*
X121553Y158088D02*
X117698Y154233D01*
X117377Y154554D01*
X121232Y158409D01*
X121553Y158088D01*
X118067Y161574D02*
X114212Y157719D01*
X113891Y158040D01*
X117746Y161895D01*
X118067Y161574D01*
X114581Y165060D02*
X110726Y161205D01*
X110405Y161526D01*
X114260Y165381D01*
X114581Y165060D01*
X110774Y168867D02*
X106919Y165012D01*
X110774Y168867D02*
X111095Y168546D01*
X107240Y164691D01*
X106919Y165012D01*
X103433Y168498D02*
X107288Y172353D01*
X107609Y172032D01*
X103754Y168177D01*
X103433Y168498D01*
X99947Y171984D02*
X103802Y175839D01*
X104123Y175518D01*
X100268Y171663D01*
X99947Y171984D01*
X96460Y175470D02*
X100315Y179325D01*
X100636Y179004D01*
X96781Y175149D01*
X96460Y175470D01*
X92974Y178956D02*
X96829Y182811D01*
X97150Y182490D01*
X93295Y178635D01*
X92974Y178956D01*
D17*
X70400Y10090D03*
X107400Y33090D03*
X70400Y33090D03*
X107400Y10090D03*
D12*
X115180Y48260D03*
X98180Y48260D03*
X78350Y48260D03*
X61350Y48260D03*
X57039Y181356D03*
X40039Y181356D03*
X135627Y250342D03*
X118627Y250342D03*
D10*
X45720Y9280D03*
X45720Y26280D03*
D13*
X45720Y40760D03*
X45720Y55760D03*
D12*
X135500Y264871D03*
X118500Y264871D03*
X135500Y279400D03*
X118500Y279400D03*
D18*
X88900Y290500D03*
X95400Y290500D03*
X101900Y290500D03*
X82400Y290500D03*
X75900Y290500D03*
D19*
X107900Y295500D03*
X69900Y295500D03*
D20*
X125740Y317500D03*
X52060Y317500D03*
D21*
X88900Y317500D03*
D22*
X109220Y21590D03*
X43180Y292100D03*
D23*
X102900Y247650D03*
X74900Y247650D03*
D24*
X100400Y265684D03*
X77400Y265684D03*
D25*
X16819Y317500D03*
X8581Y317500D03*
M02*
