G04 EAGLE Gerber RS-274X export*
G75*
%MOMM*%
%FSLAX34Y34*%
%LPD*%
%INSilkscreen Top*%
%IPPOS*%
%AMOC8*
5,1,8,0,0,1.08239X$1,22.5*%
G01*
%ADD10C,0.254000*%
%ADD11C,0.152400*%
%ADD12C,0.127000*%
%ADD13C,0.558800*%
%ADD14C,0.025400*%
%ADD15C,0.203200*%
%ADD16R,0.457200X0.762000*%
%ADD17R,0.762000X0.457200*%
%ADD18C,0.101600*%
%ADD19C,0.304800*%
%ADD20C,0.050800*%

G36*
X170160Y307217D02*
X170160Y307217D01*
X170164Y307215D01*
X170204Y307236D01*
X170246Y307253D01*
X170248Y307258D01*
X170252Y307260D01*
X170265Y307303D01*
X170281Y307345D01*
X170279Y307350D01*
X170281Y307354D01*
X170245Y307424D01*
X170240Y307434D01*
X170239Y307435D01*
X164757Y312307D01*
X163975Y313161D01*
X163386Y314151D01*
X163259Y314502D01*
X163194Y314870D01*
X163194Y317145D01*
X163192Y317150D01*
X163194Y317156D01*
X163070Y318520D01*
X163064Y318530D01*
X163066Y318542D01*
X162698Y319861D01*
X162690Y319869D01*
X162689Y319882D01*
X162089Y321112D01*
X162082Y321119D01*
X162079Y321130D01*
X161262Y322287D01*
X161254Y322292D01*
X161251Y322301D01*
X160279Y323332D01*
X160271Y323336D01*
X160268Y323342D01*
X160267Y323343D01*
X160266Y323344D01*
X159159Y324229D01*
X159149Y324231D01*
X159142Y324240D01*
X157461Y325187D01*
X157450Y325188D01*
X157440Y325196D01*
X155616Y325824D01*
X155605Y325823D01*
X155594Y325830D01*
X153687Y326118D01*
X153676Y326115D01*
X153664Y326120D01*
X151736Y326059D01*
X151727Y326055D01*
X151715Y326057D01*
X150676Y325850D01*
X150668Y325845D01*
X150658Y325845D01*
X149660Y325487D01*
X149653Y325481D01*
X149642Y325480D01*
X148708Y324978D01*
X148701Y324969D01*
X148689Y324966D01*
X147552Y324059D01*
X147546Y324048D01*
X147533Y324041D01*
X146612Y322915D01*
X146600Y322872D01*
X146584Y322831D01*
X146586Y322826D01*
X146585Y322820D01*
X146607Y322782D01*
X146625Y322742D01*
X146631Y322739D01*
X146633Y322735D01*
X146662Y322727D01*
X146710Y322709D01*
X147590Y322709D01*
X147711Y322693D01*
X147813Y322649D01*
X148153Y322375D01*
X148401Y322014D01*
X148466Y321840D01*
X148524Y321302D01*
X148426Y320772D01*
X148177Y320284D01*
X147526Y319382D01*
X147172Y318970D01*
X146762Y318619D01*
X146304Y318336D01*
X145810Y318130D01*
X145510Y318071D01*
X145207Y318083D01*
X144688Y318240D01*
X144228Y318526D01*
X143858Y318921D01*
X143603Y319402D01*
X143465Y319892D01*
X143407Y320403D01*
X143407Y321006D01*
X143407Y321007D01*
X143398Y321029D01*
X143369Y321097D01*
X143277Y321132D01*
X143267Y321128D01*
X143192Y321094D01*
X143189Y321092D01*
X143188Y321091D01*
X143187Y321090D01*
X143167Y321069D01*
X143165Y321065D01*
X143162Y321064D01*
X143161Y321060D01*
X143156Y321058D01*
X142818Y320623D01*
X142814Y320608D01*
X142802Y320596D01*
X142581Y320092D01*
X142581Y320091D01*
X142429Y319735D01*
X142328Y319507D01*
X142328Y319497D01*
X142321Y319487D01*
X142101Y318609D01*
X142103Y318600D01*
X142098Y318590D01*
X142012Y317690D01*
X142016Y317680D01*
X142012Y317668D01*
X142078Y316800D01*
X142084Y316789D01*
X142083Y316776D01*
X142314Y315936D01*
X142322Y315926D01*
X142323Y315913D01*
X142711Y315133D01*
X142719Y315126D01*
X142722Y315115D01*
X143282Y314338D01*
X143289Y314334D01*
X143293Y314325D01*
X143951Y313629D01*
X143962Y313624D01*
X143970Y313613D01*
X144573Y313182D01*
X144588Y313179D01*
X144601Y313167D01*
X145293Y312900D01*
X145309Y312900D01*
X145324Y312892D01*
X146061Y312805D01*
X146076Y312810D01*
X146093Y312806D01*
X146828Y312905D01*
X146841Y312913D01*
X146858Y312913D01*
X147546Y313193D01*
X147555Y313202D01*
X147569Y313205D01*
X149327Y314392D01*
X149333Y314400D01*
X149343Y314404D01*
X150884Y315857D01*
X151319Y316227D01*
X151822Y316467D01*
X152370Y316569D01*
X152926Y316526D01*
X153451Y316340D01*
X153911Y316025D01*
X154276Y315600D01*
X154569Y315057D01*
X154767Y314471D01*
X154864Y313861D01*
X154829Y313150D01*
X154622Y312472D01*
X154257Y311866D01*
X153929Y311553D01*
X153525Y311347D01*
X153109Y311254D01*
X152681Y311254D01*
X152266Y311347D01*
X152128Y311419D01*
X152014Y311537D01*
X151415Y312361D01*
X151344Y312494D01*
X151316Y312632D01*
X151332Y312790D01*
X151318Y312833D01*
X151307Y312878D01*
X151303Y312880D01*
X151302Y312884D01*
X151261Y312904D01*
X151222Y312927D01*
X151218Y312926D01*
X151214Y312928D01*
X151171Y312913D01*
X151127Y312900D01*
X151125Y312897D01*
X151121Y312896D01*
X151102Y312858D01*
X151081Y312822D01*
X151005Y312339D01*
X151007Y312334D01*
X151004Y312329D01*
X150931Y311389D01*
X150933Y311383D01*
X150931Y311377D01*
X150932Y311374D01*
X150931Y311369D01*
X151004Y310429D01*
X151009Y310419D01*
X151008Y310407D01*
X151192Y309708D01*
X151200Y309698D01*
X151201Y309684D01*
X151522Y309036D01*
X151531Y309028D01*
X151535Y309014D01*
X151980Y308444D01*
X151991Y308438D01*
X151997Y308426D01*
X152547Y307956D01*
X152559Y307952D01*
X152568Y307941D01*
X153300Y307540D01*
X153313Y307539D01*
X153324Y307530D01*
X154123Y307290D01*
X154136Y307291D01*
X154149Y307285D01*
X154980Y307215D01*
X154986Y307217D01*
X154991Y307215D01*
X170155Y307215D01*
X170160Y307217D01*
G37*
D10*
X2540Y88900D02*
X2543Y89149D01*
X2552Y89399D01*
X2568Y89647D01*
X2589Y89896D01*
X2616Y90144D01*
X2650Y90391D01*
X2690Y90637D01*
X2735Y90882D01*
X2787Y91126D01*
X2844Y91369D01*
X2908Y91610D01*
X2977Y91849D01*
X3053Y92087D01*
X3134Y92323D01*
X3221Y92557D01*
X3313Y92788D01*
X3412Y93017D01*
X3515Y93244D01*
X3625Y93468D01*
X3740Y93689D01*
X3860Y93908D01*
X3985Y94123D01*
X4116Y94336D01*
X4252Y94545D01*
X4393Y94750D01*
X4539Y94952D01*
X4690Y95151D01*
X4846Y95345D01*
X5007Y95536D01*
X5172Y95723D01*
X5342Y95906D01*
X5516Y96084D01*
X5694Y96258D01*
X5877Y96428D01*
X6064Y96593D01*
X6255Y96754D01*
X6449Y96910D01*
X6648Y97061D01*
X6850Y97207D01*
X7055Y97348D01*
X7264Y97484D01*
X7477Y97615D01*
X7692Y97740D01*
X7911Y97860D01*
X8132Y97975D01*
X8356Y98085D01*
X8583Y98188D01*
X8812Y98287D01*
X9043Y98379D01*
X9277Y98466D01*
X9513Y98547D01*
X9751Y98623D01*
X9990Y98692D01*
X10231Y98756D01*
X10474Y98813D01*
X10718Y98865D01*
X10963Y98910D01*
X11209Y98950D01*
X11456Y98984D01*
X11704Y99011D01*
X11953Y99032D01*
X12201Y99048D01*
X12451Y99057D01*
X12700Y99060D01*
X12949Y99057D01*
X13199Y99048D01*
X13447Y99032D01*
X13696Y99011D01*
X13944Y98984D01*
X14191Y98950D01*
X14437Y98910D01*
X14682Y98865D01*
X14926Y98813D01*
X15169Y98756D01*
X15410Y98692D01*
X15649Y98623D01*
X15887Y98547D01*
X16123Y98466D01*
X16357Y98379D01*
X16588Y98287D01*
X16817Y98188D01*
X17044Y98085D01*
X17268Y97975D01*
X17489Y97860D01*
X17708Y97740D01*
X17923Y97615D01*
X18136Y97484D01*
X18345Y97348D01*
X18550Y97207D01*
X18752Y97061D01*
X18951Y96910D01*
X19145Y96754D01*
X19336Y96593D01*
X19523Y96428D01*
X19706Y96258D01*
X19884Y96084D01*
X20058Y95906D01*
X20228Y95723D01*
X20393Y95536D01*
X20554Y95345D01*
X20710Y95151D01*
X20861Y94952D01*
X21007Y94750D01*
X21148Y94545D01*
X21284Y94336D01*
X21415Y94123D01*
X21540Y93908D01*
X21660Y93689D01*
X21775Y93468D01*
X21885Y93244D01*
X21988Y93017D01*
X22087Y92788D01*
X22179Y92557D01*
X22266Y92323D01*
X22347Y92087D01*
X22423Y91849D01*
X22492Y91610D01*
X22556Y91369D01*
X22613Y91126D01*
X22665Y90882D01*
X22710Y90637D01*
X22750Y90391D01*
X22784Y90144D01*
X22811Y89896D01*
X22832Y89647D01*
X22848Y89399D01*
X22857Y89149D01*
X22860Y88900D01*
X22857Y88651D01*
X22848Y88401D01*
X22832Y88153D01*
X22811Y87904D01*
X22784Y87656D01*
X22750Y87409D01*
X22710Y87163D01*
X22665Y86918D01*
X22613Y86674D01*
X22556Y86431D01*
X22492Y86190D01*
X22423Y85951D01*
X22347Y85713D01*
X22266Y85477D01*
X22179Y85243D01*
X22087Y85012D01*
X21988Y84783D01*
X21885Y84556D01*
X21775Y84332D01*
X21660Y84111D01*
X21540Y83892D01*
X21415Y83677D01*
X21284Y83464D01*
X21148Y83255D01*
X21007Y83050D01*
X20861Y82848D01*
X20710Y82649D01*
X20554Y82455D01*
X20393Y82264D01*
X20228Y82077D01*
X20058Y81894D01*
X19884Y81716D01*
X19706Y81542D01*
X19523Y81372D01*
X19336Y81207D01*
X19145Y81046D01*
X18951Y80890D01*
X18752Y80739D01*
X18550Y80593D01*
X18345Y80452D01*
X18136Y80316D01*
X17923Y80185D01*
X17708Y80060D01*
X17489Y79940D01*
X17268Y79825D01*
X17044Y79715D01*
X16817Y79612D01*
X16588Y79513D01*
X16357Y79421D01*
X16123Y79334D01*
X15887Y79253D01*
X15649Y79177D01*
X15410Y79108D01*
X15169Y79044D01*
X14926Y78987D01*
X14682Y78935D01*
X14437Y78890D01*
X14191Y78850D01*
X13944Y78816D01*
X13696Y78789D01*
X13447Y78768D01*
X13199Y78752D01*
X12949Y78743D01*
X12700Y78740D01*
X12451Y78743D01*
X12201Y78752D01*
X11953Y78768D01*
X11704Y78789D01*
X11456Y78816D01*
X11209Y78850D01*
X10963Y78890D01*
X10718Y78935D01*
X10474Y78987D01*
X10231Y79044D01*
X9990Y79108D01*
X9751Y79177D01*
X9513Y79253D01*
X9277Y79334D01*
X9043Y79421D01*
X8812Y79513D01*
X8583Y79612D01*
X8356Y79715D01*
X8132Y79825D01*
X7911Y79940D01*
X7692Y80060D01*
X7477Y80185D01*
X7264Y80316D01*
X7055Y80452D01*
X6850Y80593D01*
X6648Y80739D01*
X6449Y80890D01*
X6255Y81046D01*
X6064Y81207D01*
X5877Y81372D01*
X5694Y81542D01*
X5516Y81716D01*
X5342Y81894D01*
X5172Y82077D01*
X5007Y82264D01*
X4846Y82455D01*
X4690Y82649D01*
X4539Y82848D01*
X4393Y83050D01*
X4252Y83255D01*
X4116Y83464D01*
X3985Y83677D01*
X3860Y83892D01*
X3740Y84111D01*
X3625Y84332D01*
X3515Y84556D01*
X3412Y84783D01*
X3313Y85012D01*
X3221Y85243D01*
X3134Y85477D01*
X3053Y85713D01*
X2977Y85951D01*
X2908Y86190D01*
X2844Y86431D01*
X2787Y86674D01*
X2735Y86918D01*
X2690Y87163D01*
X2650Y87409D01*
X2616Y87656D01*
X2589Y87904D01*
X2568Y88153D01*
X2552Y88401D01*
X2543Y88651D01*
X2540Y88900D01*
X2540Y114300D02*
X2543Y114549D01*
X2552Y114799D01*
X2568Y115047D01*
X2589Y115296D01*
X2616Y115544D01*
X2650Y115791D01*
X2690Y116037D01*
X2735Y116282D01*
X2787Y116526D01*
X2844Y116769D01*
X2908Y117010D01*
X2977Y117249D01*
X3053Y117487D01*
X3134Y117723D01*
X3221Y117957D01*
X3313Y118188D01*
X3412Y118417D01*
X3515Y118644D01*
X3625Y118868D01*
X3740Y119089D01*
X3860Y119308D01*
X3985Y119523D01*
X4116Y119736D01*
X4252Y119945D01*
X4393Y120150D01*
X4539Y120352D01*
X4690Y120551D01*
X4846Y120745D01*
X5007Y120936D01*
X5172Y121123D01*
X5342Y121306D01*
X5516Y121484D01*
X5694Y121658D01*
X5877Y121828D01*
X6064Y121993D01*
X6255Y122154D01*
X6449Y122310D01*
X6648Y122461D01*
X6850Y122607D01*
X7055Y122748D01*
X7264Y122884D01*
X7477Y123015D01*
X7692Y123140D01*
X7911Y123260D01*
X8132Y123375D01*
X8356Y123485D01*
X8583Y123588D01*
X8812Y123687D01*
X9043Y123779D01*
X9277Y123866D01*
X9513Y123947D01*
X9751Y124023D01*
X9990Y124092D01*
X10231Y124156D01*
X10474Y124213D01*
X10718Y124265D01*
X10963Y124310D01*
X11209Y124350D01*
X11456Y124384D01*
X11704Y124411D01*
X11953Y124432D01*
X12201Y124448D01*
X12451Y124457D01*
X12700Y124460D01*
X12949Y124457D01*
X13199Y124448D01*
X13447Y124432D01*
X13696Y124411D01*
X13944Y124384D01*
X14191Y124350D01*
X14437Y124310D01*
X14682Y124265D01*
X14926Y124213D01*
X15169Y124156D01*
X15410Y124092D01*
X15649Y124023D01*
X15887Y123947D01*
X16123Y123866D01*
X16357Y123779D01*
X16588Y123687D01*
X16817Y123588D01*
X17044Y123485D01*
X17268Y123375D01*
X17489Y123260D01*
X17708Y123140D01*
X17923Y123015D01*
X18136Y122884D01*
X18345Y122748D01*
X18550Y122607D01*
X18752Y122461D01*
X18951Y122310D01*
X19145Y122154D01*
X19336Y121993D01*
X19523Y121828D01*
X19706Y121658D01*
X19884Y121484D01*
X20058Y121306D01*
X20228Y121123D01*
X20393Y120936D01*
X20554Y120745D01*
X20710Y120551D01*
X20861Y120352D01*
X21007Y120150D01*
X21148Y119945D01*
X21284Y119736D01*
X21415Y119523D01*
X21540Y119308D01*
X21660Y119089D01*
X21775Y118868D01*
X21885Y118644D01*
X21988Y118417D01*
X22087Y118188D01*
X22179Y117957D01*
X22266Y117723D01*
X22347Y117487D01*
X22423Y117249D01*
X22492Y117010D01*
X22556Y116769D01*
X22613Y116526D01*
X22665Y116282D01*
X22710Y116037D01*
X22750Y115791D01*
X22784Y115544D01*
X22811Y115296D01*
X22832Y115047D01*
X22848Y114799D01*
X22857Y114549D01*
X22860Y114300D01*
X22857Y114051D01*
X22848Y113801D01*
X22832Y113553D01*
X22811Y113304D01*
X22784Y113056D01*
X22750Y112809D01*
X22710Y112563D01*
X22665Y112318D01*
X22613Y112074D01*
X22556Y111831D01*
X22492Y111590D01*
X22423Y111351D01*
X22347Y111113D01*
X22266Y110877D01*
X22179Y110643D01*
X22087Y110412D01*
X21988Y110183D01*
X21885Y109956D01*
X21775Y109732D01*
X21660Y109511D01*
X21540Y109292D01*
X21415Y109077D01*
X21284Y108864D01*
X21148Y108655D01*
X21007Y108450D01*
X20861Y108248D01*
X20710Y108049D01*
X20554Y107855D01*
X20393Y107664D01*
X20228Y107477D01*
X20058Y107294D01*
X19884Y107116D01*
X19706Y106942D01*
X19523Y106772D01*
X19336Y106607D01*
X19145Y106446D01*
X18951Y106290D01*
X18752Y106139D01*
X18550Y105993D01*
X18345Y105852D01*
X18136Y105716D01*
X17923Y105585D01*
X17708Y105460D01*
X17489Y105340D01*
X17268Y105225D01*
X17044Y105115D01*
X16817Y105012D01*
X16588Y104913D01*
X16357Y104821D01*
X16123Y104734D01*
X15887Y104653D01*
X15649Y104577D01*
X15410Y104508D01*
X15169Y104444D01*
X14926Y104387D01*
X14682Y104335D01*
X14437Y104290D01*
X14191Y104250D01*
X13944Y104216D01*
X13696Y104189D01*
X13447Y104168D01*
X13199Y104152D01*
X12949Y104143D01*
X12700Y104140D01*
X12451Y104143D01*
X12201Y104152D01*
X11953Y104168D01*
X11704Y104189D01*
X11456Y104216D01*
X11209Y104250D01*
X10963Y104290D01*
X10718Y104335D01*
X10474Y104387D01*
X10231Y104444D01*
X9990Y104508D01*
X9751Y104577D01*
X9513Y104653D01*
X9277Y104734D01*
X9043Y104821D01*
X8812Y104913D01*
X8583Y105012D01*
X8356Y105115D01*
X8132Y105225D01*
X7911Y105340D01*
X7692Y105460D01*
X7477Y105585D01*
X7264Y105716D01*
X7055Y105852D01*
X6850Y105993D01*
X6648Y106139D01*
X6449Y106290D01*
X6255Y106446D01*
X6064Y106607D01*
X5877Y106772D01*
X5694Y106942D01*
X5516Y107116D01*
X5342Y107294D01*
X5172Y107477D01*
X5007Y107664D01*
X4846Y107855D01*
X4690Y108049D01*
X4539Y108248D01*
X4393Y108450D01*
X4252Y108655D01*
X4116Y108864D01*
X3985Y109077D01*
X3860Y109292D01*
X3740Y109511D01*
X3625Y109732D01*
X3515Y109956D01*
X3412Y110183D01*
X3313Y110412D01*
X3221Y110643D01*
X3134Y110877D01*
X3053Y111113D01*
X2977Y111351D01*
X2908Y111590D01*
X2844Y111831D01*
X2787Y112074D01*
X2735Y112318D01*
X2690Y112563D01*
X2650Y112809D01*
X2616Y113056D01*
X2589Y113304D01*
X2568Y113553D01*
X2552Y113801D01*
X2543Y114051D01*
X2540Y114300D01*
X2540Y165100D02*
X2543Y165349D01*
X2552Y165599D01*
X2568Y165847D01*
X2589Y166096D01*
X2616Y166344D01*
X2650Y166591D01*
X2690Y166837D01*
X2735Y167082D01*
X2787Y167326D01*
X2844Y167569D01*
X2908Y167810D01*
X2977Y168049D01*
X3053Y168287D01*
X3134Y168523D01*
X3221Y168757D01*
X3313Y168988D01*
X3412Y169217D01*
X3515Y169444D01*
X3625Y169668D01*
X3740Y169889D01*
X3860Y170108D01*
X3985Y170323D01*
X4116Y170536D01*
X4252Y170745D01*
X4393Y170950D01*
X4539Y171152D01*
X4690Y171351D01*
X4846Y171545D01*
X5007Y171736D01*
X5172Y171923D01*
X5342Y172106D01*
X5516Y172284D01*
X5694Y172458D01*
X5877Y172628D01*
X6064Y172793D01*
X6255Y172954D01*
X6449Y173110D01*
X6648Y173261D01*
X6850Y173407D01*
X7055Y173548D01*
X7264Y173684D01*
X7477Y173815D01*
X7692Y173940D01*
X7911Y174060D01*
X8132Y174175D01*
X8356Y174285D01*
X8583Y174388D01*
X8812Y174487D01*
X9043Y174579D01*
X9277Y174666D01*
X9513Y174747D01*
X9751Y174823D01*
X9990Y174892D01*
X10231Y174956D01*
X10474Y175013D01*
X10718Y175065D01*
X10963Y175110D01*
X11209Y175150D01*
X11456Y175184D01*
X11704Y175211D01*
X11953Y175232D01*
X12201Y175248D01*
X12451Y175257D01*
X12700Y175260D01*
X12949Y175257D01*
X13199Y175248D01*
X13447Y175232D01*
X13696Y175211D01*
X13944Y175184D01*
X14191Y175150D01*
X14437Y175110D01*
X14682Y175065D01*
X14926Y175013D01*
X15169Y174956D01*
X15410Y174892D01*
X15649Y174823D01*
X15887Y174747D01*
X16123Y174666D01*
X16357Y174579D01*
X16588Y174487D01*
X16817Y174388D01*
X17044Y174285D01*
X17268Y174175D01*
X17489Y174060D01*
X17708Y173940D01*
X17923Y173815D01*
X18136Y173684D01*
X18345Y173548D01*
X18550Y173407D01*
X18752Y173261D01*
X18951Y173110D01*
X19145Y172954D01*
X19336Y172793D01*
X19523Y172628D01*
X19706Y172458D01*
X19884Y172284D01*
X20058Y172106D01*
X20228Y171923D01*
X20393Y171736D01*
X20554Y171545D01*
X20710Y171351D01*
X20861Y171152D01*
X21007Y170950D01*
X21148Y170745D01*
X21284Y170536D01*
X21415Y170323D01*
X21540Y170108D01*
X21660Y169889D01*
X21775Y169668D01*
X21885Y169444D01*
X21988Y169217D01*
X22087Y168988D01*
X22179Y168757D01*
X22266Y168523D01*
X22347Y168287D01*
X22423Y168049D01*
X22492Y167810D01*
X22556Y167569D01*
X22613Y167326D01*
X22665Y167082D01*
X22710Y166837D01*
X22750Y166591D01*
X22784Y166344D01*
X22811Y166096D01*
X22832Y165847D01*
X22848Y165599D01*
X22857Y165349D01*
X22860Y165100D01*
X22857Y164851D01*
X22848Y164601D01*
X22832Y164353D01*
X22811Y164104D01*
X22784Y163856D01*
X22750Y163609D01*
X22710Y163363D01*
X22665Y163118D01*
X22613Y162874D01*
X22556Y162631D01*
X22492Y162390D01*
X22423Y162151D01*
X22347Y161913D01*
X22266Y161677D01*
X22179Y161443D01*
X22087Y161212D01*
X21988Y160983D01*
X21885Y160756D01*
X21775Y160532D01*
X21660Y160311D01*
X21540Y160092D01*
X21415Y159877D01*
X21284Y159664D01*
X21148Y159455D01*
X21007Y159250D01*
X20861Y159048D01*
X20710Y158849D01*
X20554Y158655D01*
X20393Y158464D01*
X20228Y158277D01*
X20058Y158094D01*
X19884Y157916D01*
X19706Y157742D01*
X19523Y157572D01*
X19336Y157407D01*
X19145Y157246D01*
X18951Y157090D01*
X18752Y156939D01*
X18550Y156793D01*
X18345Y156652D01*
X18136Y156516D01*
X17923Y156385D01*
X17708Y156260D01*
X17489Y156140D01*
X17268Y156025D01*
X17044Y155915D01*
X16817Y155812D01*
X16588Y155713D01*
X16357Y155621D01*
X16123Y155534D01*
X15887Y155453D01*
X15649Y155377D01*
X15410Y155308D01*
X15169Y155244D01*
X14926Y155187D01*
X14682Y155135D01*
X14437Y155090D01*
X14191Y155050D01*
X13944Y155016D01*
X13696Y154989D01*
X13447Y154968D01*
X13199Y154952D01*
X12949Y154943D01*
X12700Y154940D01*
X12451Y154943D01*
X12201Y154952D01*
X11953Y154968D01*
X11704Y154989D01*
X11456Y155016D01*
X11209Y155050D01*
X10963Y155090D01*
X10718Y155135D01*
X10474Y155187D01*
X10231Y155244D01*
X9990Y155308D01*
X9751Y155377D01*
X9513Y155453D01*
X9277Y155534D01*
X9043Y155621D01*
X8812Y155713D01*
X8583Y155812D01*
X8356Y155915D01*
X8132Y156025D01*
X7911Y156140D01*
X7692Y156260D01*
X7477Y156385D01*
X7264Y156516D01*
X7055Y156652D01*
X6850Y156793D01*
X6648Y156939D01*
X6449Y157090D01*
X6255Y157246D01*
X6064Y157407D01*
X5877Y157572D01*
X5694Y157742D01*
X5516Y157916D01*
X5342Y158094D01*
X5172Y158277D01*
X5007Y158464D01*
X4846Y158655D01*
X4690Y158849D01*
X4539Y159048D01*
X4393Y159250D01*
X4252Y159455D01*
X4116Y159664D01*
X3985Y159877D01*
X3860Y160092D01*
X3740Y160311D01*
X3625Y160532D01*
X3515Y160756D01*
X3412Y160983D01*
X3313Y161212D01*
X3221Y161443D01*
X3134Y161677D01*
X3053Y161913D01*
X2977Y162151D01*
X2908Y162390D01*
X2844Y162631D01*
X2787Y162874D01*
X2735Y163118D01*
X2690Y163363D01*
X2650Y163609D01*
X2616Y163856D01*
X2589Y164104D01*
X2568Y164353D01*
X2552Y164601D01*
X2543Y164851D01*
X2540Y165100D01*
X2540Y12700D02*
X2543Y12949D01*
X2552Y13199D01*
X2568Y13447D01*
X2589Y13696D01*
X2616Y13944D01*
X2650Y14191D01*
X2690Y14437D01*
X2735Y14682D01*
X2787Y14926D01*
X2844Y15169D01*
X2908Y15410D01*
X2977Y15649D01*
X3053Y15887D01*
X3134Y16123D01*
X3221Y16357D01*
X3313Y16588D01*
X3412Y16817D01*
X3515Y17044D01*
X3625Y17268D01*
X3740Y17489D01*
X3860Y17708D01*
X3985Y17923D01*
X4116Y18136D01*
X4252Y18345D01*
X4393Y18550D01*
X4539Y18752D01*
X4690Y18951D01*
X4846Y19145D01*
X5007Y19336D01*
X5172Y19523D01*
X5342Y19706D01*
X5516Y19884D01*
X5694Y20058D01*
X5877Y20228D01*
X6064Y20393D01*
X6255Y20554D01*
X6449Y20710D01*
X6648Y20861D01*
X6850Y21007D01*
X7055Y21148D01*
X7264Y21284D01*
X7477Y21415D01*
X7692Y21540D01*
X7911Y21660D01*
X8132Y21775D01*
X8356Y21885D01*
X8583Y21988D01*
X8812Y22087D01*
X9043Y22179D01*
X9277Y22266D01*
X9513Y22347D01*
X9751Y22423D01*
X9990Y22492D01*
X10231Y22556D01*
X10474Y22613D01*
X10718Y22665D01*
X10963Y22710D01*
X11209Y22750D01*
X11456Y22784D01*
X11704Y22811D01*
X11953Y22832D01*
X12201Y22848D01*
X12451Y22857D01*
X12700Y22860D01*
X12949Y22857D01*
X13199Y22848D01*
X13447Y22832D01*
X13696Y22811D01*
X13944Y22784D01*
X14191Y22750D01*
X14437Y22710D01*
X14682Y22665D01*
X14926Y22613D01*
X15169Y22556D01*
X15410Y22492D01*
X15649Y22423D01*
X15887Y22347D01*
X16123Y22266D01*
X16357Y22179D01*
X16588Y22087D01*
X16817Y21988D01*
X17044Y21885D01*
X17268Y21775D01*
X17489Y21660D01*
X17708Y21540D01*
X17923Y21415D01*
X18136Y21284D01*
X18345Y21148D01*
X18550Y21007D01*
X18752Y20861D01*
X18951Y20710D01*
X19145Y20554D01*
X19336Y20393D01*
X19523Y20228D01*
X19706Y20058D01*
X19884Y19884D01*
X20058Y19706D01*
X20228Y19523D01*
X20393Y19336D01*
X20554Y19145D01*
X20710Y18951D01*
X20861Y18752D01*
X21007Y18550D01*
X21148Y18345D01*
X21284Y18136D01*
X21415Y17923D01*
X21540Y17708D01*
X21660Y17489D01*
X21775Y17268D01*
X21885Y17044D01*
X21988Y16817D01*
X22087Y16588D01*
X22179Y16357D01*
X22266Y16123D01*
X22347Y15887D01*
X22423Y15649D01*
X22492Y15410D01*
X22556Y15169D01*
X22613Y14926D01*
X22665Y14682D01*
X22710Y14437D01*
X22750Y14191D01*
X22784Y13944D01*
X22811Y13696D01*
X22832Y13447D01*
X22848Y13199D01*
X22857Y12949D01*
X22860Y12700D01*
X22857Y12451D01*
X22848Y12201D01*
X22832Y11953D01*
X22811Y11704D01*
X22784Y11456D01*
X22750Y11209D01*
X22710Y10963D01*
X22665Y10718D01*
X22613Y10474D01*
X22556Y10231D01*
X22492Y9990D01*
X22423Y9751D01*
X22347Y9513D01*
X22266Y9277D01*
X22179Y9043D01*
X22087Y8812D01*
X21988Y8583D01*
X21885Y8356D01*
X21775Y8132D01*
X21660Y7911D01*
X21540Y7692D01*
X21415Y7477D01*
X21284Y7264D01*
X21148Y7055D01*
X21007Y6850D01*
X20861Y6648D01*
X20710Y6449D01*
X20554Y6255D01*
X20393Y6064D01*
X20228Y5877D01*
X20058Y5694D01*
X19884Y5516D01*
X19706Y5342D01*
X19523Y5172D01*
X19336Y5007D01*
X19145Y4846D01*
X18951Y4690D01*
X18752Y4539D01*
X18550Y4393D01*
X18345Y4252D01*
X18136Y4116D01*
X17923Y3985D01*
X17708Y3860D01*
X17489Y3740D01*
X17268Y3625D01*
X17044Y3515D01*
X16817Y3412D01*
X16588Y3313D01*
X16357Y3221D01*
X16123Y3134D01*
X15887Y3053D01*
X15649Y2977D01*
X15410Y2908D01*
X15169Y2844D01*
X14926Y2787D01*
X14682Y2735D01*
X14437Y2690D01*
X14191Y2650D01*
X13944Y2616D01*
X13696Y2589D01*
X13447Y2568D01*
X13199Y2552D01*
X12949Y2543D01*
X12700Y2540D01*
X12451Y2543D01*
X12201Y2552D01*
X11953Y2568D01*
X11704Y2589D01*
X11456Y2616D01*
X11209Y2650D01*
X10963Y2690D01*
X10718Y2735D01*
X10474Y2787D01*
X10231Y2844D01*
X9990Y2908D01*
X9751Y2977D01*
X9513Y3053D01*
X9277Y3134D01*
X9043Y3221D01*
X8812Y3313D01*
X8583Y3412D01*
X8356Y3515D01*
X8132Y3625D01*
X7911Y3740D01*
X7692Y3860D01*
X7477Y3985D01*
X7264Y4116D01*
X7055Y4252D01*
X6850Y4393D01*
X6648Y4539D01*
X6449Y4690D01*
X6255Y4846D01*
X6064Y5007D01*
X5877Y5172D01*
X5694Y5342D01*
X5516Y5516D01*
X5342Y5694D01*
X5172Y5877D01*
X5007Y6064D01*
X4846Y6255D01*
X4690Y6449D01*
X4539Y6648D01*
X4393Y6850D01*
X4252Y7055D01*
X4116Y7264D01*
X3985Y7477D01*
X3860Y7692D01*
X3740Y7911D01*
X3625Y8132D01*
X3515Y8356D01*
X3412Y8583D01*
X3313Y8812D01*
X3221Y9043D01*
X3134Y9277D01*
X3053Y9513D01*
X2977Y9751D01*
X2908Y9990D01*
X2844Y10231D01*
X2787Y10474D01*
X2735Y10718D01*
X2690Y10963D01*
X2650Y11209D01*
X2616Y11456D01*
X2589Y11704D01*
X2568Y11953D01*
X2552Y12201D01*
X2543Y12451D01*
X2540Y12700D01*
X154940Y12700D02*
X154943Y12949D01*
X154952Y13199D01*
X154968Y13447D01*
X154989Y13696D01*
X155016Y13944D01*
X155050Y14191D01*
X155090Y14437D01*
X155135Y14682D01*
X155187Y14926D01*
X155244Y15169D01*
X155308Y15410D01*
X155377Y15649D01*
X155453Y15887D01*
X155534Y16123D01*
X155621Y16357D01*
X155713Y16588D01*
X155812Y16817D01*
X155915Y17044D01*
X156025Y17268D01*
X156140Y17489D01*
X156260Y17708D01*
X156385Y17923D01*
X156516Y18136D01*
X156652Y18345D01*
X156793Y18550D01*
X156939Y18752D01*
X157090Y18951D01*
X157246Y19145D01*
X157407Y19336D01*
X157572Y19523D01*
X157742Y19706D01*
X157916Y19884D01*
X158094Y20058D01*
X158277Y20228D01*
X158464Y20393D01*
X158655Y20554D01*
X158849Y20710D01*
X159048Y20861D01*
X159250Y21007D01*
X159455Y21148D01*
X159664Y21284D01*
X159877Y21415D01*
X160092Y21540D01*
X160311Y21660D01*
X160532Y21775D01*
X160756Y21885D01*
X160983Y21988D01*
X161212Y22087D01*
X161443Y22179D01*
X161677Y22266D01*
X161913Y22347D01*
X162151Y22423D01*
X162390Y22492D01*
X162631Y22556D01*
X162874Y22613D01*
X163118Y22665D01*
X163363Y22710D01*
X163609Y22750D01*
X163856Y22784D01*
X164104Y22811D01*
X164353Y22832D01*
X164601Y22848D01*
X164851Y22857D01*
X165100Y22860D01*
X165349Y22857D01*
X165599Y22848D01*
X165847Y22832D01*
X166096Y22811D01*
X166344Y22784D01*
X166591Y22750D01*
X166837Y22710D01*
X167082Y22665D01*
X167326Y22613D01*
X167569Y22556D01*
X167810Y22492D01*
X168049Y22423D01*
X168287Y22347D01*
X168523Y22266D01*
X168757Y22179D01*
X168988Y22087D01*
X169217Y21988D01*
X169444Y21885D01*
X169668Y21775D01*
X169889Y21660D01*
X170108Y21540D01*
X170323Y21415D01*
X170536Y21284D01*
X170745Y21148D01*
X170950Y21007D01*
X171152Y20861D01*
X171351Y20710D01*
X171545Y20554D01*
X171736Y20393D01*
X171923Y20228D01*
X172106Y20058D01*
X172284Y19884D01*
X172458Y19706D01*
X172628Y19523D01*
X172793Y19336D01*
X172954Y19145D01*
X173110Y18951D01*
X173261Y18752D01*
X173407Y18550D01*
X173548Y18345D01*
X173684Y18136D01*
X173815Y17923D01*
X173940Y17708D01*
X174060Y17489D01*
X174175Y17268D01*
X174285Y17044D01*
X174388Y16817D01*
X174487Y16588D01*
X174579Y16357D01*
X174666Y16123D01*
X174747Y15887D01*
X174823Y15649D01*
X174892Y15410D01*
X174956Y15169D01*
X175013Y14926D01*
X175065Y14682D01*
X175110Y14437D01*
X175150Y14191D01*
X175184Y13944D01*
X175211Y13696D01*
X175232Y13447D01*
X175248Y13199D01*
X175257Y12949D01*
X175260Y12700D01*
X175257Y12451D01*
X175248Y12201D01*
X175232Y11953D01*
X175211Y11704D01*
X175184Y11456D01*
X175150Y11209D01*
X175110Y10963D01*
X175065Y10718D01*
X175013Y10474D01*
X174956Y10231D01*
X174892Y9990D01*
X174823Y9751D01*
X174747Y9513D01*
X174666Y9277D01*
X174579Y9043D01*
X174487Y8812D01*
X174388Y8583D01*
X174285Y8356D01*
X174175Y8132D01*
X174060Y7911D01*
X173940Y7692D01*
X173815Y7477D01*
X173684Y7264D01*
X173548Y7055D01*
X173407Y6850D01*
X173261Y6648D01*
X173110Y6449D01*
X172954Y6255D01*
X172793Y6064D01*
X172628Y5877D01*
X172458Y5694D01*
X172284Y5516D01*
X172106Y5342D01*
X171923Y5172D01*
X171736Y5007D01*
X171545Y4846D01*
X171351Y4690D01*
X171152Y4539D01*
X170950Y4393D01*
X170745Y4252D01*
X170536Y4116D01*
X170323Y3985D01*
X170108Y3860D01*
X169889Y3740D01*
X169668Y3625D01*
X169444Y3515D01*
X169217Y3412D01*
X168988Y3313D01*
X168757Y3221D01*
X168523Y3134D01*
X168287Y3053D01*
X168049Y2977D01*
X167810Y2908D01*
X167569Y2844D01*
X167326Y2787D01*
X167082Y2735D01*
X166837Y2690D01*
X166591Y2650D01*
X166344Y2616D01*
X166096Y2589D01*
X165847Y2568D01*
X165599Y2552D01*
X165349Y2543D01*
X165100Y2540D01*
X164851Y2543D01*
X164601Y2552D01*
X164353Y2568D01*
X164104Y2589D01*
X163856Y2616D01*
X163609Y2650D01*
X163363Y2690D01*
X163118Y2735D01*
X162874Y2787D01*
X162631Y2844D01*
X162390Y2908D01*
X162151Y2977D01*
X161913Y3053D01*
X161677Y3134D01*
X161443Y3221D01*
X161212Y3313D01*
X160983Y3412D01*
X160756Y3515D01*
X160532Y3625D01*
X160311Y3740D01*
X160092Y3860D01*
X159877Y3985D01*
X159664Y4116D01*
X159455Y4252D01*
X159250Y4393D01*
X159048Y4539D01*
X158849Y4690D01*
X158655Y4846D01*
X158464Y5007D01*
X158277Y5172D01*
X158094Y5342D01*
X157916Y5516D01*
X157742Y5694D01*
X157572Y5877D01*
X157407Y6064D01*
X157246Y6255D01*
X157090Y6449D01*
X156939Y6648D01*
X156793Y6850D01*
X156652Y7055D01*
X156516Y7264D01*
X156385Y7477D01*
X156260Y7692D01*
X156140Y7911D01*
X156025Y8132D01*
X155915Y8356D01*
X155812Y8583D01*
X155713Y8812D01*
X155621Y9043D01*
X155534Y9277D01*
X155453Y9513D01*
X155377Y9751D01*
X155308Y9990D01*
X155244Y10231D01*
X155187Y10474D01*
X155135Y10718D01*
X155090Y10963D01*
X155050Y11209D01*
X155016Y11456D01*
X154989Y11704D01*
X154968Y11953D01*
X154952Y12201D01*
X154943Y12451D01*
X154940Y12700D01*
D11*
X34798Y11093D02*
X33357Y9652D01*
X34798Y11093D02*
X34798Y13974D01*
X33357Y15414D01*
X27595Y15414D01*
X26155Y13974D01*
X26155Y11093D01*
X27595Y9652D01*
X29036Y9652D01*
X30476Y11093D01*
X30476Y15414D01*
X27595Y35052D02*
X26155Y36493D01*
X26155Y39374D01*
X27595Y40814D01*
X29036Y40814D01*
X30476Y39374D01*
X31917Y40814D01*
X33357Y40814D01*
X34798Y39374D01*
X34798Y36493D01*
X33357Y35052D01*
X31917Y35052D01*
X30476Y36493D01*
X29036Y35052D01*
X27595Y35052D01*
X30476Y36493D02*
X30476Y39374D01*
X26155Y60452D02*
X26155Y66214D01*
X27595Y66214D01*
X33357Y60452D01*
X34798Y60452D01*
X27595Y88733D02*
X26155Y91614D01*
X27595Y88733D02*
X30476Y85852D01*
X33357Y85852D01*
X34798Y87293D01*
X34798Y90174D01*
X33357Y91614D01*
X31917Y91614D01*
X30476Y90174D01*
X30476Y85852D01*
X26155Y111252D02*
X26155Y117014D01*
X26155Y111252D02*
X30476Y111252D01*
X29036Y114133D01*
X29036Y115574D01*
X30476Y117014D01*
X33357Y117014D01*
X34798Y115574D01*
X34798Y112693D01*
X33357Y111252D01*
X34798Y140974D02*
X26155Y140974D01*
X30476Y136652D01*
X30476Y142414D01*
X27595Y162052D02*
X26155Y163493D01*
X26155Y166374D01*
X27595Y167814D01*
X29036Y167814D01*
X30476Y166374D01*
X30476Y164933D01*
X30476Y166374D02*
X31917Y167814D01*
X33357Y167814D01*
X34798Y166374D01*
X34798Y163493D01*
X33357Y162052D01*
D12*
X31166Y187808D02*
X31166Y192384D01*
X31166Y187808D02*
X26590Y192384D01*
X25446Y192384D01*
X24302Y191240D01*
X24302Y188952D01*
X25446Y187808D01*
X26791Y209807D02*
X27935Y210951D01*
X26791Y209807D02*
X26791Y207519D01*
X27935Y206375D01*
X32511Y206375D01*
X33655Y207519D01*
X33655Y209807D01*
X32511Y210951D01*
X30223Y210951D01*
X30223Y208663D01*
X33655Y213859D02*
X26791Y213859D01*
X33655Y218435D01*
X26791Y218435D01*
X26791Y221343D02*
X33655Y221343D01*
X33655Y224775D01*
X32511Y225919D01*
X27935Y225919D01*
X26791Y224775D01*
X26791Y221343D01*
X26791Y235207D02*
X27935Y236351D01*
X26791Y235207D02*
X26791Y232919D01*
X27935Y231775D01*
X32511Y231775D01*
X33655Y232919D01*
X33655Y235207D01*
X32511Y236351D01*
X30223Y236351D01*
X30223Y234063D01*
X33655Y239259D02*
X26791Y239259D01*
X33655Y243835D01*
X26791Y243835D01*
X26791Y246743D02*
X33655Y246743D01*
X33655Y250175D01*
X32511Y251319D01*
X27935Y251319D01*
X26791Y250175D01*
X26791Y246743D01*
X26791Y257175D02*
X33655Y257175D01*
X26791Y257175D02*
X26791Y260607D01*
X27935Y261751D01*
X30223Y261751D01*
X31367Y260607D01*
X31367Y257175D01*
X31367Y259463D02*
X33655Y261751D01*
X26791Y264659D02*
X33655Y269235D01*
X33655Y264659D02*
X26791Y269235D01*
X33655Y272143D02*
X33655Y274431D01*
X33655Y273287D02*
X26791Y273287D01*
X26791Y272143D02*
X26791Y274431D01*
X26791Y284863D02*
X33655Y284863D01*
X26791Y282575D02*
X26791Y287151D01*
X26791Y290059D02*
X33655Y294635D01*
X33655Y290059D02*
X26791Y294635D01*
X26791Y298687D02*
X26791Y300975D01*
X26791Y298687D02*
X27935Y297543D01*
X32511Y297543D01*
X33655Y298687D01*
X33655Y300975D01*
X32511Y302119D01*
X27935Y302119D01*
X26791Y300975D01*
X146171Y282575D02*
X153035Y282575D01*
X146171Y282575D02*
X146171Y286007D01*
X147315Y287151D01*
X149603Y287151D01*
X150747Y286007D01*
X150747Y282575D01*
X150747Y284863D02*
X153035Y287151D01*
X153035Y290059D02*
X148459Y290059D01*
X146171Y292347D01*
X148459Y294635D01*
X153035Y294635D01*
X149603Y294635D02*
X149603Y290059D01*
X146171Y297543D02*
X153035Y297543D01*
X150747Y299831D01*
X153035Y302119D01*
X146171Y302119D01*
X147315Y261751D02*
X146171Y260607D01*
X146171Y258319D01*
X147315Y257175D01*
X151891Y257175D01*
X153035Y258319D01*
X153035Y260607D01*
X151891Y261751D01*
X149603Y261751D01*
X149603Y259463D01*
X153035Y264659D02*
X146171Y264659D01*
X153035Y269235D01*
X146171Y269235D01*
X146171Y272143D02*
X153035Y272143D01*
X153035Y275575D01*
X151891Y276719D01*
X147315Y276719D01*
X146171Y275575D01*
X146171Y272143D01*
X146171Y231775D02*
X153035Y231775D01*
X146171Y231775D02*
X146171Y235207D01*
X147315Y236351D01*
X149603Y236351D01*
X150747Y235207D01*
X150747Y231775D01*
X150747Y234063D02*
X153035Y236351D01*
X146171Y242691D02*
X147315Y243835D01*
X146171Y242691D02*
X146171Y240403D01*
X147315Y239259D01*
X148459Y239259D01*
X149603Y240403D01*
X149603Y242691D01*
X150747Y243835D01*
X151891Y243835D01*
X153035Y242691D01*
X153035Y240403D01*
X151891Y239259D01*
X153035Y249031D02*
X146171Y249031D01*
X146171Y246743D02*
X146171Y251319D01*
X146171Y206375D02*
X150747Y206375D01*
X153035Y208663D01*
X150747Y210951D01*
X146171Y210951D01*
X146171Y217291D02*
X147315Y218435D01*
X146171Y217291D02*
X146171Y215003D01*
X147315Y213859D01*
X151891Y213859D01*
X153035Y215003D01*
X153035Y217291D01*
X151891Y218435D01*
X146171Y224775D02*
X147315Y225919D01*
X146171Y224775D02*
X146171Y222487D01*
X147315Y221343D01*
X151891Y221343D01*
X153035Y222487D01*
X153035Y224775D01*
X151891Y225919D01*
D11*
X152908Y183642D02*
X147146Y183642D01*
X144265Y186523D01*
X147146Y189404D01*
X152908Y189404D01*
X148586Y189404D02*
X148586Y183642D01*
X145705Y192997D02*
X144265Y194438D01*
X144265Y197319D01*
X145705Y198759D01*
X147146Y198759D01*
X148586Y197319D01*
X148586Y195878D01*
X148586Y197319D02*
X150027Y198759D01*
X151467Y198759D01*
X152908Y197319D01*
X152908Y194438D01*
X151467Y192997D01*
X152908Y158242D02*
X147146Y158242D01*
X144265Y161123D01*
X147146Y164004D01*
X152908Y164004D01*
X148586Y164004D02*
X148586Y158242D01*
X152908Y167597D02*
X152908Y173359D01*
X152908Y167597D02*
X147146Y173359D01*
X145705Y173359D01*
X144265Y171919D01*
X144265Y169038D01*
X145705Y167597D01*
X147146Y132842D02*
X152908Y132842D01*
X147146Y132842D02*
X144265Y135723D01*
X147146Y138604D01*
X152908Y138604D01*
X148586Y138604D02*
X148586Y132842D01*
X147146Y142197D02*
X144265Y145078D01*
X152908Y145078D01*
X152908Y142197D02*
X152908Y147959D01*
X152908Y107442D02*
X147146Y107442D01*
X144265Y110323D01*
X147146Y113204D01*
X152908Y113204D01*
X148586Y113204D02*
X148586Y107442D01*
X151467Y116797D02*
X145705Y116797D01*
X144265Y118238D01*
X144265Y121119D01*
X145705Y122559D01*
X151467Y122559D01*
X152908Y121119D01*
X152908Y118238D01*
X151467Y116797D01*
X145705Y122559D01*
X144265Y84923D02*
X147146Y82042D01*
X144265Y84923D02*
X152908Y84923D01*
X152908Y82042D02*
X152908Y87804D01*
X144265Y91397D02*
X144265Y97159D01*
X144265Y91397D02*
X148586Y91397D01*
X147146Y94278D01*
X147146Y95719D01*
X148586Y97159D01*
X151467Y97159D01*
X152908Y95719D01*
X152908Y92838D01*
X151467Y91397D01*
X144265Y59523D02*
X147146Y56642D01*
X144265Y59523D02*
X152908Y59523D01*
X152908Y56642D02*
X152908Y62404D01*
X152908Y70319D02*
X144265Y70319D01*
X148586Y65997D01*
X148586Y71759D01*
X144265Y34123D02*
X147146Y31242D01*
X144265Y34123D02*
X152908Y34123D01*
X152908Y31242D02*
X152908Y37004D01*
X145705Y43478D02*
X144265Y46359D01*
X145705Y43478D02*
X148586Y40597D01*
X151467Y40597D01*
X152908Y42038D01*
X152908Y44919D01*
X151467Y46359D01*
X150027Y46359D01*
X148586Y44919D01*
X148586Y40597D01*
X144265Y8723D02*
X147146Y5842D01*
X144265Y8723D02*
X152908Y8723D01*
X152908Y5842D02*
X152908Y11604D01*
X151467Y15197D02*
X145705Y15197D01*
X144265Y16638D01*
X144265Y19519D01*
X145705Y20959D01*
X151467Y20959D01*
X152908Y19519D01*
X152908Y16638D01*
X151467Y15197D01*
X145705Y20959D01*
X55372Y66802D02*
X55372Y75445D01*
X59694Y75445D01*
X61134Y74005D01*
X61134Y71124D01*
X59694Y69683D01*
X55372Y69683D01*
X64727Y66802D02*
X64727Y72564D01*
X64727Y69683D02*
X67608Y72564D01*
X69049Y72564D01*
X73964Y66802D02*
X76845Y66802D01*
X78285Y68243D01*
X78285Y71124D01*
X76845Y72564D01*
X73964Y72564D01*
X72523Y71124D01*
X72523Y68243D01*
X73964Y66802D01*
D12*
X32511Y311785D02*
X33655Y312929D01*
X33655Y314073D01*
X32511Y315217D01*
X26791Y315217D01*
X26791Y314073D02*
X26791Y316361D01*
X29079Y319269D02*
X26791Y321557D01*
X33655Y321557D01*
X33655Y319269D02*
X33655Y323845D01*
D11*
X83312Y75445D02*
X83312Y66802D01*
X86193Y72564D02*
X83312Y75445D01*
X86193Y72564D02*
X89074Y75445D01*
X89074Y66802D01*
X92667Y72564D02*
X94108Y72564D01*
X94108Y66802D01*
X95548Y66802D02*
X92667Y66802D01*
X94108Y75445D02*
X94108Y76886D01*
X100345Y72564D02*
X104666Y72564D01*
X100345Y72564D02*
X98904Y71124D01*
X98904Y68243D01*
X100345Y66802D01*
X104666Y66802D01*
X108259Y66802D02*
X108259Y72564D01*
X108259Y69683D02*
X111140Y72564D01*
X112581Y72564D01*
X117496Y66802D02*
X120377Y66802D01*
X121817Y68243D01*
X121817Y71124D01*
X120377Y72564D01*
X117496Y72564D01*
X116055Y71124D01*
X116055Y68243D01*
X117496Y66802D01*
D13*
X44882Y78740D02*
X44272Y78740D01*
D14*
X34287Y72519D02*
X33652Y71884D01*
X33652Y70613D01*
X34287Y69977D01*
X36829Y69977D01*
X37465Y70613D01*
X37465Y71884D01*
X36829Y72519D01*
X34923Y73719D02*
X33652Y74990D01*
X37465Y74990D01*
X37465Y73719D02*
X37465Y76261D01*
X36829Y77461D02*
X34287Y77461D01*
X33652Y78097D01*
X33652Y79368D01*
X34287Y80003D01*
X36829Y80003D01*
X37465Y79368D01*
X37465Y78097D01*
X36829Y77461D01*
X34287Y80003D01*
D15*
X62673Y193516D02*
X62673Y208516D01*
X62673Y193516D02*
X38673Y193516D01*
X38673Y208516D01*
X62673Y228516D02*
X62673Y239516D01*
X58673Y243516D01*
X42673Y243516D01*
X38673Y239516D01*
X38673Y228516D01*
D12*
X40513Y222326D02*
X60833Y222326D01*
D14*
X33558Y195785D02*
X32923Y195150D01*
X32923Y193879D01*
X33558Y193243D01*
X36100Y193243D01*
X36736Y193879D01*
X36736Y195150D01*
X36100Y195785D01*
X34194Y196985D02*
X32923Y198256D01*
X36736Y198256D01*
X36736Y196985D02*
X36736Y199527D01*
X33558Y200727D02*
X32923Y201363D01*
X32923Y202634D01*
X33558Y203270D01*
X34194Y203270D01*
X34829Y202634D01*
X34829Y201998D01*
X34829Y202634D02*
X35465Y203270D01*
X36100Y203270D01*
X36736Y202634D01*
X36736Y201363D01*
X36100Y200727D01*
D16*
X50673Y264998D03*
D14*
X41910Y272110D02*
X41910Y275923D01*
X43817Y275923D01*
X44452Y275288D01*
X44452Y274017D01*
X43817Y273381D01*
X41910Y273381D01*
X43181Y273381D02*
X44452Y272110D01*
X45652Y274652D02*
X46923Y275923D01*
X46923Y272110D01*
X45652Y272110D02*
X48194Y272110D01*
X49394Y274652D02*
X50665Y275923D01*
X50665Y272110D01*
X49394Y272110D02*
X51936Y272110D01*
D15*
X52373Y251054D02*
X52373Y246454D01*
X52373Y251054D02*
X52373Y255654D01*
X52373Y251054D02*
X49273Y248716D01*
X52219Y251308D02*
X49273Y253238D01*
D14*
X41910Y258166D02*
X41910Y261979D01*
X41910Y258166D02*
X44452Y258166D01*
X45652Y261979D02*
X48194Y261979D01*
X45652Y261979D02*
X45652Y258166D01*
X48194Y258166D01*
X46923Y260072D02*
X45652Y260072D01*
X49394Y261979D02*
X49394Y258166D01*
X51301Y258166D01*
X51936Y258801D01*
X51936Y261343D01*
X51301Y261979D01*
X49394Y261979D01*
X53136Y260708D02*
X54407Y261979D01*
X54407Y258166D01*
X53136Y258166D02*
X55678Y258166D01*
D16*
X50800Y279400D03*
D14*
X42037Y286512D02*
X42037Y290325D01*
X43944Y290325D01*
X44579Y289690D01*
X44579Y288419D01*
X43944Y287783D01*
X42037Y287783D01*
X43308Y287783D02*
X44579Y286512D01*
X45779Y286512D02*
X48321Y286512D01*
X45779Y286512D02*
X48321Y289054D01*
X48321Y289690D01*
X47686Y290325D01*
X46415Y290325D01*
X45779Y289690D01*
D13*
X131775Y81280D02*
X132385Y81280D01*
D14*
X121790Y75059D02*
X121155Y74424D01*
X121155Y73153D01*
X121790Y72517D01*
X124332Y72517D01*
X124968Y73153D01*
X124968Y74424D01*
X124332Y75059D01*
X121790Y76259D02*
X121155Y76895D01*
X121155Y78166D01*
X121790Y78801D01*
X122426Y78801D01*
X123061Y78166D01*
X123061Y77530D01*
X123061Y78166D02*
X123697Y78801D01*
X124332Y78801D01*
X124968Y78166D01*
X124968Y76895D01*
X124332Y76259D01*
D13*
X127381Y185267D02*
X127381Y185877D01*
D14*
X130820Y178464D02*
X131456Y177828D01*
X130820Y178464D02*
X129549Y178464D01*
X128914Y177828D01*
X128914Y175286D01*
X129549Y174650D01*
X130820Y174650D01*
X131456Y175286D01*
X132656Y177193D02*
X133927Y178464D01*
X133927Y174650D01*
X132656Y174650D02*
X135198Y174650D01*
D17*
X132080Y17780D03*
D18*
X132578Y-25100D02*
X144272Y-25100D01*
X132578Y-25100D02*
X132578Y-19253D01*
X134527Y-17304D01*
X138425Y-17304D01*
X140374Y-19253D01*
X140374Y-25100D01*
X140374Y-21202D02*
X144272Y-17304D01*
X134527Y-9508D02*
X132578Y-5610D01*
X134527Y-9508D02*
X138425Y-13406D01*
X142323Y-13406D01*
X144272Y-11457D01*
X144272Y-7559D01*
X142323Y-5610D01*
X140374Y-5610D01*
X138425Y-7559D01*
X138425Y-13406D01*
D15*
X132080Y46560D02*
X127480Y46560D01*
X132080Y46560D02*
X136680Y46560D01*
X132080Y46560D02*
X129742Y49660D01*
X132334Y46714D02*
X134264Y49660D01*
D18*
X131572Y68768D02*
X119878Y68768D01*
X131572Y68768D02*
X131572Y74615D01*
X129623Y76564D01*
X121827Y76564D01*
X119878Y74615D01*
X119878Y68768D01*
X121827Y80462D02*
X119878Y82411D01*
X119878Y86309D01*
X121827Y88258D01*
X123776Y88258D01*
X125725Y86309D01*
X125725Y84360D01*
X125725Y86309D02*
X127674Y88258D01*
X129623Y88258D01*
X131572Y86309D01*
X131572Y82411D01*
X129623Y80462D01*
D15*
X95658Y232766D02*
X87070Y232766D01*
X87070Y204318D02*
X95658Y204318D01*
X83260Y215858D02*
X83260Y221226D01*
D14*
X69011Y209779D02*
X65834Y209779D01*
X69011Y209779D02*
X69647Y210414D01*
X69647Y211685D01*
X69011Y212321D01*
X65834Y212321D01*
X69647Y213521D02*
X69647Y216063D01*
X69647Y213521D02*
X67105Y216063D01*
X66469Y216063D01*
X65834Y215427D01*
X65834Y214156D01*
X66469Y213521D01*
D15*
X139229Y208034D02*
X139229Y193034D01*
X115229Y193034D01*
X115229Y208034D01*
X139229Y228034D02*
X139229Y239034D01*
X135229Y243034D01*
X119229Y243034D01*
X115229Y239034D01*
X115229Y228034D01*
D12*
X117069Y221844D02*
X137389Y221844D01*
D14*
X110114Y195303D02*
X109478Y194667D01*
X109478Y193396D01*
X110114Y192761D01*
X112656Y192761D01*
X113292Y193396D01*
X113292Y194667D01*
X112656Y195303D01*
X110749Y196503D02*
X109478Y197774D01*
X113292Y197774D01*
X113292Y196503D02*
X113292Y199045D01*
X112656Y200245D02*
X113292Y200880D01*
X113292Y202151D01*
X112656Y202787D01*
X110114Y202787D01*
X109478Y202151D01*
X109478Y200880D01*
X110114Y200245D01*
X110749Y200245D01*
X111385Y200880D01*
X111385Y202787D01*
D15*
X86072Y93031D02*
X88900Y90203D01*
X91728Y93031D01*
X42231Y136872D02*
X39403Y139700D01*
X42231Y142528D01*
X135569Y136872D02*
X138397Y139700D01*
X135569Y142528D01*
X92436Y185662D02*
X85364Y185662D01*
D18*
X107614Y192343D02*
X114504Y199234D01*
X107614Y192343D02*
X107614Y189587D01*
X110370Y186831D01*
X113126Y186831D01*
X120017Y193721D01*
X121395Y189587D02*
X124151Y189587D01*
X126908Y186831D01*
X126908Y184074D01*
X125529Y182696D01*
X122773Y182696D01*
X121395Y184074D01*
X122773Y182696D02*
X122773Y179940D01*
X121395Y178562D01*
X118639Y178562D01*
X115882Y181318D01*
X115882Y184074D01*
D15*
X94900Y37590D02*
X82900Y37590D01*
X113900Y24590D02*
X113900Y18590D01*
X94900Y5590D02*
X82900Y5590D01*
X63900Y18590D02*
X63900Y24590D01*
D14*
X63627Y43945D02*
X63627Y44580D01*
X63627Y43945D02*
X64898Y42674D01*
X66169Y43945D01*
X66169Y44580D01*
X64898Y42674D02*
X64898Y40767D01*
X67369Y43309D02*
X68640Y44580D01*
X68640Y40767D01*
X67369Y40767D02*
X69911Y40767D01*
D13*
X106680Y47955D02*
X106680Y48565D01*
D14*
X110119Y40516D02*
X110755Y39881D01*
X110119Y40516D02*
X108848Y40516D01*
X108213Y39881D01*
X108213Y37339D01*
X108848Y36703D01*
X110119Y36703D01*
X110755Y37339D01*
X111955Y36703D02*
X114497Y36703D01*
X111955Y36703D02*
X114497Y39245D01*
X114497Y39881D01*
X113862Y40516D01*
X112590Y40516D01*
X111955Y39881D01*
D13*
X69850Y47955D02*
X69850Y48565D01*
D14*
X73289Y40516D02*
X73925Y39881D01*
X73289Y40516D02*
X72018Y40516D01*
X71383Y39881D01*
X71383Y37339D01*
X72018Y36703D01*
X73289Y36703D01*
X73925Y37339D01*
X77032Y36703D02*
X77032Y40516D01*
X75125Y38610D01*
X77667Y38610D01*
D13*
X48539Y181051D02*
X48539Y181661D01*
D14*
X51979Y173612D02*
X52614Y172977D01*
X51979Y173612D02*
X50708Y173612D01*
X50072Y172977D01*
X50072Y170435D01*
X50708Y169799D01*
X51979Y169799D01*
X52614Y170435D01*
X53814Y173612D02*
X56356Y173612D01*
X53814Y173612D02*
X53814Y171706D01*
X55085Y172341D01*
X55721Y172341D01*
X56356Y171706D01*
X56356Y170435D01*
X55721Y169799D01*
X54450Y169799D01*
X53814Y170435D01*
D13*
X127127Y250037D02*
X127127Y250647D01*
D14*
X130566Y242599D02*
X131202Y241963D01*
X130566Y242599D02*
X129295Y242599D01*
X128660Y241963D01*
X128660Y239421D01*
X129295Y238785D01*
X130566Y238785D01*
X131202Y239421D01*
X133673Y241963D02*
X134944Y242599D01*
X133673Y241963D02*
X132402Y240692D01*
X132402Y239421D01*
X133037Y238785D01*
X134309Y238785D01*
X134944Y239421D01*
X134944Y240056D01*
X134309Y240692D01*
X132402Y240692D01*
D17*
X45720Y17780D03*
D14*
X37973Y9017D02*
X34160Y9017D01*
X34160Y10924D01*
X34795Y11559D01*
X36066Y11559D01*
X36702Y10924D01*
X36702Y9017D01*
X36702Y10288D02*
X37973Y11559D01*
X37973Y14666D02*
X34160Y14666D01*
X36066Y12759D01*
X36066Y15301D01*
D15*
X41120Y46560D02*
X45720Y46560D01*
X50320Y46560D01*
X45720Y46560D02*
X43382Y49660D01*
X45974Y46714D02*
X47904Y49660D01*
D14*
X52829Y49793D02*
X56642Y49793D01*
X56642Y51699D01*
X56006Y52335D01*
X53464Y52335D01*
X52829Y51699D01*
X52829Y49793D01*
X54100Y53535D02*
X52829Y54806D01*
X56642Y54806D01*
X56642Y53535D02*
X56642Y56077D01*
D16*
X127000Y264871D03*
D14*
X128533Y257127D02*
X128533Y253314D01*
X128533Y257127D02*
X130439Y257127D01*
X131075Y256492D01*
X131075Y255221D01*
X130439Y254585D01*
X128533Y254585D01*
X129804Y254585D02*
X131075Y253314D01*
X132275Y257127D02*
X134817Y257127D01*
X132275Y257127D02*
X132275Y255221D01*
X133546Y255856D01*
X134182Y255856D01*
X134817Y255221D01*
X134817Y253950D01*
X134182Y253314D01*
X132910Y253314D01*
X132275Y253950D01*
D16*
X127000Y279400D03*
D14*
X128533Y271656D02*
X128533Y267843D01*
X128533Y271656D02*
X130439Y271656D01*
X131075Y271021D01*
X131075Y269750D01*
X130439Y269114D01*
X128533Y269114D01*
X129804Y269114D02*
X131075Y267843D01*
X132275Y271656D02*
X134817Y271656D01*
X134817Y271021D01*
X132275Y268479D01*
X132275Y267843D01*
D19*
X128829Y287680D02*
X128829Y297500D01*
X128900Y297500D01*
X128900Y287500D02*
X118900Y287500D01*
X48900Y287500D02*
X48900Y297500D01*
X48900Y287500D02*
X58900Y287500D01*
X128900Y327500D02*
X128900Y337500D01*
X48900Y337500D02*
X48900Y327500D01*
D20*
X85648Y319721D02*
X92766Y324467D01*
X92766Y319721D02*
X85648Y324467D01*
X88021Y326738D02*
X85648Y329110D01*
X92766Y329110D01*
X92766Y326738D02*
X92766Y331483D01*
D15*
X95250Y255270D02*
X82550Y255270D01*
X82550Y240030D02*
X95250Y240030D01*
D14*
X96783Y234826D02*
X96783Y231013D01*
X96783Y234826D02*
X99325Y234826D01*
X98054Y232920D02*
X96783Y232920D01*
X100525Y233555D02*
X101796Y234826D01*
X101796Y231013D01*
X100525Y231013D02*
X103067Y231013D01*
D15*
X97900Y259184D02*
X93900Y259184D01*
X79900Y259184D01*
X93900Y272184D02*
X97900Y272184D01*
X93900Y272184D02*
X79900Y272184D01*
X93900Y272184D02*
X93900Y259184D01*
D14*
X90433Y255400D02*
X90433Y251587D01*
X92339Y251587D01*
X92975Y252223D01*
X92975Y254765D01*
X92339Y255400D01*
X90433Y255400D01*
X94175Y251587D02*
X96717Y251587D01*
X94175Y251587D02*
X96717Y254129D01*
X96717Y254765D01*
X96082Y255400D01*
X94810Y255400D01*
X94175Y254765D01*
D11*
X20700Y327500D02*
X4700Y327500D01*
X1700Y310000D02*
X1712Y309897D01*
X1727Y309795D01*
X1746Y309694D01*
X1768Y309593D01*
X1795Y309493D01*
X1825Y309394D01*
X1859Y309297D01*
X1896Y309201D01*
X1937Y309106D01*
X1982Y309013D01*
X2030Y308921D01*
X2081Y308832D01*
X2136Y308744D01*
X2194Y308659D01*
X2255Y308575D01*
X2319Y308495D01*
X2386Y308416D01*
X2456Y308340D01*
X2529Y308267D01*
X2604Y308197D01*
X2682Y308129D01*
X2763Y308064D01*
X2846Y308003D01*
X2931Y307944D01*
X3018Y307889D01*
X3108Y307837D01*
X3199Y307789D01*
X3292Y307744D01*
X3386Y307702D01*
X3482Y307664D01*
X3580Y307630D01*
X3678Y307599D01*
X3778Y307572D01*
X3878Y307549D01*
X3980Y307529D01*
X4082Y307514D01*
X4184Y307502D01*
X4287Y307494D01*
X4391Y307490D01*
X4494Y307489D01*
X4597Y307493D01*
X4700Y307500D01*
X20700Y307500D02*
X20803Y307493D01*
X20906Y307489D01*
X21009Y307490D01*
X21113Y307494D01*
X21216Y307502D01*
X21318Y307514D01*
X21420Y307529D01*
X21522Y307549D01*
X21622Y307572D01*
X21722Y307599D01*
X21820Y307630D01*
X21918Y307664D01*
X22014Y307702D01*
X22108Y307744D01*
X22201Y307789D01*
X22292Y307837D01*
X22382Y307889D01*
X22469Y307944D01*
X22554Y308003D01*
X22637Y308064D01*
X22718Y308129D01*
X22796Y308197D01*
X22871Y308267D01*
X22944Y308340D01*
X23014Y308416D01*
X23081Y308495D01*
X23145Y308575D01*
X23206Y308659D01*
X23264Y308744D01*
X23319Y308832D01*
X23370Y308921D01*
X23418Y309013D01*
X23463Y309106D01*
X23504Y309201D01*
X23541Y309297D01*
X23575Y309394D01*
X23605Y309493D01*
X23632Y309593D01*
X23654Y309694D01*
X23673Y309795D01*
X23688Y309897D01*
X23700Y310000D01*
X23700Y325000D02*
X23689Y325103D01*
X23674Y325205D01*
X23655Y325307D01*
X23632Y325407D01*
X23606Y325507D01*
X23576Y325606D01*
X23542Y325704D01*
X23505Y325800D01*
X23464Y325895D01*
X23419Y325988D01*
X23371Y326080D01*
X23320Y326169D01*
X23265Y326257D01*
X23207Y326342D01*
X23146Y326426D01*
X23082Y326507D01*
X23015Y326585D01*
X22945Y326661D01*
X22872Y326734D01*
X22796Y326805D01*
X22718Y326873D01*
X22638Y326937D01*
X22555Y326999D01*
X22470Y327057D01*
X22382Y327112D01*
X22293Y327164D01*
X22202Y327213D01*
X22109Y327258D01*
X22014Y327299D01*
X21918Y327337D01*
X21821Y327372D01*
X21722Y327402D01*
X21622Y327429D01*
X21522Y327453D01*
X21420Y327472D01*
X21318Y327488D01*
X21215Y327499D01*
X21112Y327507D01*
X21009Y327511D01*
X20906Y327512D01*
X20802Y327508D01*
X20699Y327500D01*
X4700Y327500D02*
X4597Y327507D01*
X4494Y327511D01*
X4391Y327510D01*
X4287Y327506D01*
X4184Y327498D01*
X4082Y327486D01*
X3980Y327471D01*
X3878Y327451D01*
X3778Y327428D01*
X3678Y327401D01*
X3580Y327370D01*
X3482Y327336D01*
X3386Y327298D01*
X3292Y327256D01*
X3199Y327211D01*
X3108Y327163D01*
X3018Y327111D01*
X2931Y327056D01*
X2846Y326997D01*
X2763Y326936D01*
X2682Y326871D01*
X2604Y326803D01*
X2529Y326733D01*
X2456Y326660D01*
X2386Y326584D01*
X2319Y326505D01*
X2255Y326425D01*
X2194Y326341D01*
X2136Y326256D01*
X2081Y326168D01*
X2030Y326079D01*
X1982Y325987D01*
X1937Y325894D01*
X1896Y325799D01*
X1859Y325703D01*
X1825Y325606D01*
X1795Y325507D01*
X1768Y325407D01*
X1746Y325306D01*
X1727Y325205D01*
X1712Y325103D01*
X1700Y325000D01*
X1700Y310000D01*
X23700Y310000D02*
X23700Y325000D01*
X20700Y307500D02*
X4700Y307500D01*
D14*
X13005Y304676D02*
X13641Y304041D01*
X13005Y304676D02*
X11734Y304676D01*
X11099Y304041D01*
X11099Y303405D01*
X11734Y302770D01*
X13005Y302770D01*
X13641Y302134D01*
X13641Y301499D01*
X13005Y300863D01*
X11734Y300863D01*
X11099Y301499D01*
X14841Y301499D02*
X15476Y300863D01*
X16112Y300863D01*
X16747Y301499D01*
X16747Y304676D01*
X16112Y304676D02*
X17383Y304676D01*
X18583Y303405D02*
X19854Y304676D01*
X19854Y300863D01*
X18583Y300863D02*
X21125Y300863D01*
M02*
