M48
;GenerationSoftware,Autodesk,EAGLE,9.6.2*%
;CreationDate,2024-10-03T03:41:45Z*%
FMAT,2
ICI,OFF
METRIC,TZ,000.000
T3C0.254
T2C0.850
T1C1.016
%
G90
M71
T1
X1270Y6350
X16510Y29210
X16510Y26670
X16510Y24130
X16510Y21590
X16510Y19050
X16510Y16510
X16510Y13970
X16510Y11430
X16510Y8890
X16510Y6350
X16510Y3810
X16510Y1270
X1270Y1270
X1270Y3810
X1270Y8890
X1270Y11430
X1270Y13970
X1270Y16510
X1270Y19050
X1270Y21590
X1270Y24130
X1270Y26670
X1270Y29210
T2
X10790Y29550
X6990Y29550
T3
X7937Y27610
X15159Y2207
X14389Y1260
X6449Y9459
X5989Y10406
X11598Y8760
X13630Y11676
X11557Y10287
X3698Y23586
X3231Y13970
X12187Y6457
X9012Y19233
X12065Y29464
X11354Y23825
X4841Y19124
X7389Y19647
X13106Y30226
X6426Y19614
X13945Y29439
X4064Y16510
X3716Y12103
X9129Y3002
X14859Y18669
X11902Y21915
X13881Y15842
X10884Y19647
X6391Y21709
X16828Y32131
X13716Y12624
X8583Y25702
X15397Y22852
X3340Y25253
X6820Y30963
X3508Y2992
X5601Y6952
X6426Y24183
X9555Y7064
X6754Y8481
X3429Y29210
X10160Y15240
X9957Y14249
X8890Y14224
X7770Y8164
X3696Y9896
X9689Y8023
X14486Y15080
X14653Y20058
M30