G04 EAGLE Gerber RS-274X export*
G75*
%MOMM*%
%FSLAX34Y34*%
%LPD*%
%INSilkscreen Bottom*%
%IPPOS*%
%AMOC8*
5,1,8,0,0,1.08239X$1,22.5*%
G01*
%ADD10C,0.127000*%
%ADD11R,0.635000X0.635000*%
%ADD12C,0.025400*%
%ADD13R,0.485100X0.495300*%
%ADD14C,0.203200*%

G36*
X42575Y149480D02*
X42575Y149480D01*
X42683Y149494D01*
X42695Y149500D01*
X42709Y149502D01*
X42805Y149554D01*
X42902Y149601D01*
X42912Y149611D01*
X42924Y149617D01*
X42998Y149697D01*
X43075Y149773D01*
X43081Y149785D01*
X43091Y149796D01*
X43136Y149894D01*
X43184Y149991D01*
X43188Y150009D01*
X43192Y150018D01*
X43194Y150039D01*
X43213Y150136D01*
X43656Y154487D01*
X44815Y154858D01*
X44833Y154868D01*
X44930Y154906D01*
X46012Y155463D01*
X49402Y152699D01*
X49496Y152645D01*
X49588Y152588D01*
X49601Y152585D01*
X49613Y152578D01*
X49720Y152557D01*
X49825Y152532D01*
X49839Y152534D01*
X49853Y152531D01*
X49960Y152546D01*
X50068Y152556D01*
X50081Y152562D01*
X50095Y152564D01*
X50192Y152612D01*
X50291Y152657D01*
X50304Y152668D01*
X50313Y152672D01*
X50328Y152688D01*
X50405Y152750D01*
X52990Y155335D01*
X53053Y155424D01*
X53119Y155509D01*
X53124Y155522D01*
X53132Y155534D01*
X53163Y155637D01*
X53199Y155740D01*
X53199Y155754D01*
X53203Y155767D01*
X53199Y155875D01*
X53200Y155984D01*
X53195Y155997D01*
X53195Y156011D01*
X53157Y156113D01*
X53122Y156215D01*
X53113Y156230D01*
X53109Y156239D01*
X53095Y156256D01*
X53041Y156338D01*
X50277Y159728D01*
X50834Y160810D01*
X50840Y160830D01*
X50882Y160925D01*
X51253Y162084D01*
X55604Y162527D01*
X55708Y162555D01*
X55814Y162580D01*
X55826Y162587D01*
X55839Y162590D01*
X55929Y162651D01*
X56022Y162708D01*
X56030Y162719D01*
X56042Y162727D01*
X56108Y162813D01*
X56177Y162897D01*
X56181Y162910D01*
X56190Y162921D01*
X56224Y163024D01*
X56263Y163125D01*
X56264Y163143D01*
X56268Y163152D01*
X56268Y163174D01*
X56277Y163272D01*
X56277Y166928D01*
X56260Y167035D01*
X56246Y167143D01*
X56240Y167155D01*
X56238Y167169D01*
X56186Y167265D01*
X56139Y167362D01*
X56129Y167372D01*
X56123Y167384D01*
X56043Y167458D01*
X55967Y167535D01*
X55955Y167541D01*
X55945Y167551D01*
X55846Y167596D01*
X55749Y167644D01*
X55731Y167648D01*
X55722Y167652D01*
X55701Y167654D01*
X55604Y167673D01*
X51253Y168116D01*
X50882Y169275D01*
X50872Y169293D01*
X50834Y169390D01*
X50277Y170472D01*
X53041Y173862D01*
X53095Y173956D01*
X53152Y174048D01*
X53155Y174061D01*
X53162Y174073D01*
X53183Y174180D01*
X53208Y174285D01*
X53206Y174299D01*
X53209Y174313D01*
X53194Y174420D01*
X53184Y174528D01*
X53178Y174541D01*
X53176Y174555D01*
X53128Y174652D01*
X53083Y174751D01*
X53072Y174764D01*
X53068Y174773D01*
X53052Y174788D01*
X52990Y174865D01*
X50405Y177450D01*
X50316Y177513D01*
X50231Y177579D01*
X50218Y177584D01*
X50206Y177592D01*
X50103Y177623D01*
X50000Y177659D01*
X49986Y177659D01*
X49973Y177663D01*
X49865Y177659D01*
X49756Y177660D01*
X49743Y177655D01*
X49729Y177655D01*
X49627Y177617D01*
X49525Y177582D01*
X49510Y177573D01*
X49501Y177569D01*
X49484Y177555D01*
X49402Y177501D01*
X46012Y174737D01*
X44930Y175294D01*
X44910Y175300D01*
X44815Y175342D01*
X43656Y175713D01*
X43213Y180064D01*
X43185Y180168D01*
X43160Y180274D01*
X43153Y180286D01*
X43150Y180299D01*
X43089Y180389D01*
X43032Y180482D01*
X43021Y180490D01*
X43013Y180502D01*
X42927Y180568D01*
X42843Y180637D01*
X42830Y180641D01*
X42819Y180650D01*
X42716Y180684D01*
X42615Y180723D01*
X42597Y180724D01*
X42588Y180728D01*
X42566Y180728D01*
X42468Y180737D01*
X38812Y180737D01*
X38705Y180720D01*
X38597Y180706D01*
X38585Y180700D01*
X38571Y180698D01*
X38475Y180646D01*
X38378Y180599D01*
X38368Y180589D01*
X38356Y180583D01*
X38282Y180503D01*
X38205Y180427D01*
X38199Y180415D01*
X38189Y180405D01*
X38144Y180306D01*
X38096Y180209D01*
X38092Y180191D01*
X38088Y180182D01*
X38086Y180161D01*
X38067Y180064D01*
X37624Y175713D01*
X36465Y175342D01*
X36447Y175332D01*
X36350Y175294D01*
X35268Y174737D01*
X31878Y177501D01*
X31784Y177555D01*
X31692Y177612D01*
X31679Y177615D01*
X31667Y177622D01*
X31560Y177643D01*
X31455Y177668D01*
X31441Y177666D01*
X31427Y177669D01*
X31320Y177654D01*
X31212Y177644D01*
X31199Y177638D01*
X31186Y177636D01*
X31088Y177588D01*
X30989Y177543D01*
X30976Y177532D01*
X30967Y177528D01*
X30952Y177512D01*
X30875Y177450D01*
X28290Y174865D01*
X28227Y174776D01*
X28161Y174691D01*
X28156Y174678D01*
X28148Y174666D01*
X28117Y174563D01*
X28081Y174460D01*
X28081Y174446D01*
X28077Y174433D01*
X28081Y174325D01*
X28080Y174216D01*
X28085Y174203D01*
X28085Y174189D01*
X28123Y174087D01*
X28158Y173985D01*
X28167Y173970D01*
X28171Y173961D01*
X28185Y173944D01*
X28239Y173862D01*
X31003Y170472D01*
X30446Y169390D01*
X30429Y169337D01*
X30403Y169288D01*
X30392Y169222D01*
X30371Y169158D01*
X30372Y169102D01*
X30363Y169048D01*
X30374Y168981D01*
X30375Y168914D01*
X30393Y168862D01*
X30402Y168807D01*
X30434Y168747D01*
X30457Y168684D01*
X30491Y168641D01*
X30517Y168592D01*
X30566Y168545D01*
X30608Y168493D01*
X30655Y168463D01*
X30695Y168425D01*
X30800Y168368D01*
X30813Y168360D01*
X30818Y168359D01*
X30825Y168355D01*
X36022Y166202D01*
X36121Y166179D01*
X36219Y166150D01*
X36240Y166151D01*
X36260Y166146D01*
X36361Y166156D01*
X36462Y166161D01*
X36482Y166168D01*
X36503Y166170D01*
X36595Y166212D01*
X36690Y166249D01*
X36706Y166262D01*
X36725Y166271D01*
X36799Y166340D01*
X36877Y166405D01*
X36893Y166428D01*
X36903Y166438D01*
X36915Y166459D01*
X36962Y166526D01*
X37468Y167425D01*
X38112Y168112D01*
X38900Y168627D01*
X39788Y168939D01*
X40725Y169031D01*
X41657Y168898D01*
X42531Y168547D01*
X43296Y167998D01*
X43909Y167284D01*
X44334Y166444D01*
X44548Y165528D01*
X44538Y164586D01*
X44304Y163674D01*
X43861Y162844D01*
X43232Y162143D01*
X42455Y161611D01*
X41574Y161280D01*
X40639Y161167D01*
X39722Y161275D01*
X38854Y161595D01*
X38085Y162109D01*
X37458Y162788D01*
X36963Y163672D01*
X36899Y163752D01*
X36839Y163835D01*
X36823Y163847D01*
X36810Y163863D01*
X36724Y163918D01*
X36641Y163978D01*
X36622Y163984D01*
X36605Y163994D01*
X36506Y164019D01*
X36408Y164049D01*
X36388Y164048D01*
X36368Y164053D01*
X36266Y164044D01*
X36164Y164041D01*
X36139Y164033D01*
X36125Y164032D01*
X36103Y164023D01*
X36022Y163998D01*
X30825Y161845D01*
X30778Y161816D01*
X30726Y161795D01*
X30675Y161752D01*
X30618Y161716D01*
X30583Y161673D01*
X30540Y161637D01*
X30506Y161580D01*
X30463Y161528D01*
X30444Y161476D01*
X30415Y161428D01*
X30401Y161362D01*
X30377Y161299D01*
X30375Y161244D01*
X30364Y161190D01*
X30371Y161123D01*
X30369Y161056D01*
X30385Y161002D01*
X30392Y160947D01*
X30436Y160836D01*
X30440Y160822D01*
X30443Y160818D01*
X30446Y160810D01*
X31003Y159728D01*
X28239Y156338D01*
X28185Y156244D01*
X28128Y156152D01*
X28125Y156139D01*
X28118Y156127D01*
X28097Y156020D01*
X28072Y155915D01*
X28074Y155901D01*
X28071Y155887D01*
X28086Y155780D01*
X28096Y155672D01*
X28102Y155659D01*
X28104Y155646D01*
X28152Y155548D01*
X28197Y155449D01*
X28208Y155436D01*
X28212Y155427D01*
X28228Y155412D01*
X28290Y155335D01*
X30875Y152750D01*
X30964Y152687D01*
X31049Y152621D01*
X31062Y152616D01*
X31074Y152608D01*
X31177Y152577D01*
X31280Y152541D01*
X31294Y152541D01*
X31307Y152537D01*
X31415Y152541D01*
X31524Y152540D01*
X31537Y152545D01*
X31551Y152545D01*
X31653Y152583D01*
X31755Y152618D01*
X31770Y152627D01*
X31779Y152631D01*
X31796Y152645D01*
X31878Y152699D01*
X35268Y155463D01*
X36350Y154906D01*
X36370Y154900D01*
X36465Y154858D01*
X37624Y154487D01*
X38067Y150136D01*
X38095Y150032D01*
X38120Y149926D01*
X38127Y149914D01*
X38130Y149901D01*
X38191Y149811D01*
X38248Y149718D01*
X38259Y149710D01*
X38267Y149698D01*
X38353Y149632D01*
X38437Y149564D01*
X38450Y149559D01*
X38461Y149550D01*
X38564Y149516D01*
X38665Y149477D01*
X38683Y149476D01*
X38692Y149472D01*
X38714Y149473D01*
X38812Y149463D01*
X42468Y149463D01*
X42575Y149480D01*
G37*
G36*
X115143Y139297D02*
X115143Y139297D01*
X115149Y139295D01*
X115980Y139365D01*
X115991Y139371D01*
X116006Y139370D01*
X116805Y139610D01*
X116815Y139618D01*
X116829Y139620D01*
X117561Y140021D01*
X117569Y140031D01*
X117582Y140036D01*
X118132Y140506D01*
X118137Y140517D01*
X118149Y140524D01*
X118594Y141094D01*
X118597Y141106D01*
X118607Y141116D01*
X118928Y141764D01*
X118929Y141776D01*
X118937Y141788D01*
X119121Y142487D01*
X119120Y142498D01*
X119125Y142509D01*
X119198Y143449D01*
X119196Y143458D01*
X119199Y143465D01*
X119198Y143467D01*
X119198Y143469D01*
X119125Y144409D01*
X119123Y144413D01*
X119124Y144419D01*
X119048Y144902D01*
X119023Y144941D01*
X119002Y144981D01*
X118998Y144982D01*
X118996Y144985D01*
X118951Y144995D01*
X118907Y145007D01*
X118903Y145005D01*
X118899Y145006D01*
X118861Y144981D01*
X118822Y144958D01*
X118821Y144953D01*
X118818Y144951D01*
X118809Y144910D01*
X118797Y144870D01*
X118813Y144712D01*
X118785Y144574D01*
X118714Y144441D01*
X118115Y143617D01*
X118049Y143549D01*
X118001Y143499D01*
X117863Y143427D01*
X117448Y143334D01*
X117020Y143334D01*
X116604Y143427D01*
X116200Y143633D01*
X115872Y143946D01*
X115507Y144552D01*
X115300Y145230D01*
X115265Y145941D01*
X115362Y146551D01*
X115560Y147137D01*
X115853Y147680D01*
X116218Y148105D01*
X116678Y148420D01*
X117203Y148606D01*
X117759Y148649D01*
X118307Y148547D01*
X118810Y148307D01*
X119245Y147937D01*
X120786Y146484D01*
X120796Y146481D01*
X120802Y146472D01*
X122560Y145285D01*
X122573Y145283D01*
X122583Y145273D01*
X123271Y144993D01*
X123286Y144994D01*
X123301Y144985D01*
X124036Y144886D01*
X124051Y144890D01*
X124068Y144885D01*
X124805Y144972D01*
X124818Y144980D01*
X124836Y144980D01*
X125528Y145247D01*
X125539Y145258D01*
X125556Y145262D01*
X126159Y145693D01*
X126166Y145704D01*
X126178Y145709D01*
X126356Y145898D01*
X126357Y145898D01*
X126595Y146151D01*
X126596Y146151D01*
X126834Y146403D01*
X126836Y146405D01*
X126839Y146413D01*
X126847Y146418D01*
X127407Y147195D01*
X127410Y147205D01*
X127418Y147213D01*
X127806Y147993D01*
X127807Y148005D01*
X127815Y148016D01*
X128046Y148856D01*
X128045Y148868D01*
X128051Y148880D01*
X128117Y149748D01*
X128113Y149759D01*
X128117Y149770D01*
X128031Y150670D01*
X128027Y150679D01*
X128028Y150689D01*
X127808Y151567D01*
X127802Y151575D01*
X127801Y151587D01*
X127700Y151815D01*
X127548Y152171D01*
X127548Y152172D01*
X127327Y152676D01*
X127316Y152686D01*
X127311Y152703D01*
X126973Y153138D01*
X126966Y153141D01*
X126962Y153149D01*
X126937Y153174D01*
X126937Y153175D01*
X126936Y153177D01*
X126844Y153212D01*
X126755Y153171D01*
X126722Y153086D01*
X126722Y152483D01*
X126665Y151972D01*
X126526Y151482D01*
X126271Y151001D01*
X126267Y150998D01*
X125901Y150606D01*
X125441Y150320D01*
X124922Y150163D01*
X124619Y150151D01*
X124319Y150210D01*
X123825Y150416D01*
X123367Y150699D01*
X122957Y151050D01*
X122603Y151462D01*
X121952Y152364D01*
X121703Y152852D01*
X121605Y153382D01*
X121663Y153920D01*
X121728Y154094D01*
X121977Y154455D01*
X122316Y154729D01*
X122419Y154773D01*
X122539Y154789D01*
X123419Y154789D01*
X123460Y154806D01*
X123502Y154820D01*
X123505Y154825D01*
X123510Y154827D01*
X123526Y154868D01*
X123545Y154908D01*
X123543Y154914D01*
X123545Y154919D01*
X123533Y154946D01*
X123517Y154995D01*
X122596Y156121D01*
X122584Y156127D01*
X122577Y156139D01*
X121440Y157046D01*
X121429Y157049D01*
X121421Y157058D01*
X120487Y157560D01*
X120477Y157561D01*
X120469Y157567D01*
X119472Y157925D01*
X119462Y157925D01*
X119453Y157930D01*
X118414Y158137D01*
X118403Y158135D01*
X118393Y158139D01*
X116465Y158200D01*
X116454Y158195D01*
X116442Y158198D01*
X114535Y157910D01*
X114525Y157904D01*
X114513Y157904D01*
X112689Y157276D01*
X112680Y157269D01*
X112668Y157267D01*
X110987Y156320D01*
X110981Y156312D01*
X110970Y156309D01*
X109863Y155424D01*
X109860Y155419D01*
X109855Y155416D01*
X109854Y155414D01*
X109850Y155412D01*
X109497Y155038D01*
X109021Y154533D01*
X108878Y154381D01*
X108875Y154373D01*
X108867Y154367D01*
X108050Y153210D01*
X108048Y153200D01*
X108040Y153192D01*
X107440Y151962D01*
X107439Y151951D01*
X107431Y151941D01*
X107063Y150622D01*
X107065Y150611D01*
X107059Y150600D01*
X106935Y149236D01*
X106937Y149231D01*
X106935Y149225D01*
X106935Y146950D01*
X106870Y146582D01*
X106743Y146231D01*
X106154Y145241D01*
X105372Y144387D01*
X99890Y139515D01*
X99888Y139511D01*
X99883Y139509D01*
X99867Y139467D01*
X99848Y139426D01*
X99850Y139422D01*
X99848Y139417D01*
X99867Y139376D01*
X99882Y139334D01*
X99887Y139332D01*
X99889Y139328D01*
X99962Y139299D01*
X99973Y139295D01*
X99974Y139295D01*
X115138Y139295D01*
X115143Y139297D01*
G37*
G36*
X95643Y83760D02*
X95643Y83760D01*
X95682Y83770D01*
X95688Y83779D01*
X95697Y83783D01*
X95708Y83811D01*
X95730Y83848D01*
X96466Y87734D01*
X96463Y87748D01*
X96468Y87763D01*
X96453Y87795D01*
X96445Y87830D01*
X96432Y87838D01*
X96426Y87852D01*
X96387Y87866D01*
X96362Y87882D01*
X96351Y87879D01*
X96340Y87883D01*
X94423Y87859D01*
X94572Y87993D01*
X94573Y87994D01*
X94574Y87994D01*
X95539Y88883D01*
X95541Y88889D01*
X95548Y88893D01*
X95849Y89236D01*
X95853Y89247D01*
X95863Y89255D01*
X96096Y89649D01*
X96097Y89658D01*
X96104Y89666D01*
X96637Y90987D01*
X96637Y90998D01*
X96644Y91008D01*
X96746Y91490D01*
X96743Y91502D01*
X96748Y91514D01*
X96773Y93495D01*
X96769Y93506D01*
X96771Y93518D01*
X96588Y94603D01*
X96581Y94613D01*
X96581Y94628D01*
X96181Y95652D01*
X96173Y95659D01*
X96171Y95671D01*
X95630Y96573D01*
X95624Y96578D01*
X95621Y96587D01*
X94968Y97411D01*
X94958Y97417D01*
X94953Y97427D01*
X94063Y98219D01*
X94050Y98223D01*
X94041Y98235D01*
X93000Y98814D01*
X92988Y98816D01*
X92977Y98824D01*
X90864Y99498D01*
X90853Y99497D01*
X90842Y99503D01*
X88642Y99786D01*
X88631Y99783D01*
X88619Y99787D01*
X86404Y99669D01*
X86394Y99664D01*
X86382Y99666D01*
X85006Y99343D01*
X84997Y99337D01*
X84985Y99336D01*
X83685Y98780D01*
X83677Y98772D01*
X83666Y98770D01*
X82481Y97998D01*
X82475Y97989D01*
X82464Y97984D01*
X81757Y97327D01*
X81753Y97317D01*
X81743Y97311D01*
X81158Y96543D01*
X81156Y96532D01*
X81147Y96525D01*
X80701Y95669D01*
X80700Y95658D01*
X80692Y95649D01*
X80398Y94730D01*
X80399Y94720D01*
X80393Y94710D01*
X80204Y93498D01*
X80206Y93489D01*
X80203Y93480D01*
X80186Y92253D01*
X80189Y92245D01*
X80187Y92235D01*
X80342Y91018D01*
X80347Y91008D01*
X80347Y90996D01*
X80611Y90152D01*
X80619Y90142D01*
X80622Y90127D01*
X81059Y89358D01*
X81069Y89350D01*
X81074Y89336D01*
X81664Y88676D01*
X81676Y88670D01*
X81684Y88658D01*
X82400Y88138D01*
X82402Y88137D01*
X71298Y88137D01*
X71254Y88119D01*
X71211Y88102D01*
X71210Y88100D01*
X71207Y88099D01*
X71190Y88055D01*
X71172Y88011D01*
X71173Y88009D01*
X71172Y88007D01*
X71181Y87986D01*
X71204Y87926D01*
X74938Y83786D01*
X74944Y83784D01*
X74947Y83778D01*
X75007Y83754D01*
X75028Y83745D01*
X75030Y83746D01*
X75032Y83745D01*
X95606Y83745D01*
X95643Y83760D01*
G37*
G36*
X96725Y232895D02*
X96725Y232895D01*
X96727Y232894D01*
X96770Y232914D01*
X96814Y232932D01*
X96814Y232934D01*
X96816Y232935D01*
X96849Y233020D01*
X96849Y237007D01*
X96848Y237009D01*
X96849Y237011D01*
X96829Y237054D01*
X96811Y237098D01*
X96809Y237098D01*
X96808Y237100D01*
X96723Y237133D01*
X94670Y237133D01*
X94677Y237164D01*
X95073Y237466D01*
X95076Y237472D01*
X95084Y237475D01*
X95871Y238237D01*
X95874Y238245D01*
X95881Y238249D01*
X96493Y239011D01*
X96497Y239025D01*
X96510Y239037D01*
X96914Y239927D01*
X96914Y239939D01*
X96922Y239950D01*
X97176Y241042D01*
X97175Y241051D01*
X97179Y241059D01*
X97306Y242431D01*
X97303Y242441D01*
X97306Y242452D01*
X97237Y243409D01*
X97231Y243420D01*
X97232Y243434D01*
X96972Y244357D01*
X96964Y244367D01*
X96962Y244380D01*
X96559Y245170D01*
X96550Y245178D01*
X96546Y245191D01*
X96000Y245889D01*
X95989Y245895D01*
X95983Y245907D01*
X95314Y246489D01*
X95302Y246492D01*
X95300Y246495D01*
X95300Y246496D01*
X95299Y246496D01*
X95294Y246503D01*
X94636Y246883D01*
X94678Y246925D01*
X95159Y247380D01*
X95160Y247383D01*
X95163Y247384D01*
X95922Y248172D01*
X95925Y248181D01*
X95934Y248186D01*
X96572Y249075D01*
X96574Y249086D01*
X96582Y249094D01*
X96976Y249899D01*
X96976Y249911D01*
X96984Y249922D01*
X97216Y250787D01*
X97214Y250799D01*
X97220Y250811D01*
X97281Y251705D01*
X97280Y251708D01*
X97281Y251709D01*
X97278Y251715D01*
X97281Y251725D01*
X97174Y253004D01*
X97170Y253011D01*
X97172Y253018D01*
X96923Y254278D01*
X96917Y254287D01*
X96917Y254299D01*
X96591Y255165D01*
X96581Y255175D01*
X96578Y255190D01*
X96071Y255964D01*
X96059Y255971D01*
X96053Y255985D01*
X95389Y256631D01*
X95377Y256635D01*
X95368Y256647D01*
X94429Y257235D01*
X94416Y257237D01*
X94406Y257247D01*
X93367Y257633D01*
X93354Y257632D01*
X93342Y257639D01*
X92246Y257808D01*
X92237Y257805D01*
X92227Y257809D01*
X80645Y257809D01*
X80643Y257808D01*
X80641Y257809D01*
X80598Y257789D01*
X80554Y257771D01*
X80554Y257769D01*
X80552Y257768D01*
X80519Y257683D01*
X80519Y253441D01*
X80520Y253439D01*
X80519Y253437D01*
X80539Y253394D01*
X80557Y253350D01*
X80559Y253350D01*
X80560Y253348D01*
X80645Y253315D01*
X90924Y253315D01*
X91804Y253208D01*
X92626Y252896D01*
X93010Y252635D01*
X93323Y252292D01*
X93549Y251886D01*
X93677Y251438D01*
X93745Y250534D01*
X93653Y249631D01*
X93527Y249222D01*
X93317Y248849D01*
X93031Y248531D01*
X92503Y248146D01*
X91908Y247873D01*
X91269Y247724D01*
X90166Y247649D01*
X80645Y247649D01*
X80643Y247648D01*
X80641Y247649D01*
X80598Y247629D01*
X80554Y247611D01*
X80554Y247609D01*
X80552Y247608D01*
X80519Y247523D01*
X80519Y243205D01*
X80520Y243203D01*
X80519Y243201D01*
X80539Y243158D01*
X80557Y243114D01*
X80559Y243114D01*
X80560Y243112D01*
X80645Y243079D01*
X91204Y243079D01*
X91867Y242999D01*
X92486Y242768D01*
X93033Y242398D01*
X93351Y242051D01*
X93584Y241643D01*
X93720Y241192D01*
X93752Y240715D01*
X93702Y239867D01*
X93620Y239427D01*
X93442Y239023D01*
X93176Y238669D01*
X92232Y237849D01*
X91694Y237566D01*
X91103Y237434D01*
X90481Y237464D01*
X90478Y237463D01*
X90475Y237464D01*
X80670Y237464D01*
X80668Y237463D01*
X80666Y237464D01*
X80623Y237444D01*
X80579Y237426D01*
X80579Y237424D01*
X80577Y237423D01*
X80544Y237338D01*
X80544Y233020D01*
X80545Y233018D01*
X80544Y233016D01*
X80564Y232973D01*
X80582Y232929D01*
X80584Y232929D01*
X80585Y232927D01*
X80670Y232894D01*
X96723Y232894D01*
X96725Y232895D01*
G37*
G36*
X85573Y101118D02*
X85573Y101118D01*
X85585Y101123D01*
X85600Y101121D01*
X86541Y101327D01*
X86553Y101336D01*
X86570Y101337D01*
X87432Y101766D01*
X87441Y101776D01*
X87456Y101781D01*
X88065Y102279D01*
X88069Y102287D01*
X88077Y102290D01*
X88078Y102294D01*
X88083Y102297D01*
X88581Y102907D01*
X88584Y102919D01*
X88595Y102928D01*
X88961Y103624D01*
X88962Y103635D01*
X88969Y103644D01*
X89453Y105129D01*
X89452Y105137D01*
X89457Y105146D01*
X89735Y106683D01*
X89734Y106687D01*
X89737Y106692D01*
X89965Y108898D01*
X90191Y110204D01*
X90356Y110673D01*
X90602Y111101D01*
X90863Y111385D01*
X90950Y111445D01*
X91047Y111487D01*
X91568Y111598D01*
X92099Y111598D01*
X92620Y111487D01*
X92934Y111348D01*
X93213Y111149D01*
X93447Y110896D01*
X93640Y110582D01*
X93768Y110236D01*
X93829Y109867D01*
X93879Y108512D01*
X93825Y107925D01*
X93660Y107364D01*
X93405Y106900D01*
X93049Y106510D01*
X92611Y106215D01*
X92116Y106031D01*
X91585Y105968D01*
X91542Y105968D01*
X91540Y105967D01*
X91538Y105968D01*
X91495Y105948D01*
X91451Y105930D01*
X91451Y105928D01*
X91449Y105927D01*
X91416Y105842D01*
X91416Y101701D01*
X91414Y101700D01*
X91404Y101658D01*
X91390Y101616D01*
X91393Y101610D01*
X91392Y101604D01*
X91408Y101579D01*
X91429Y101534D01*
X91454Y101509D01*
X91455Y101509D01*
X91497Y101493D01*
X91546Y101474D01*
X91547Y101474D01*
X91589Y101494D01*
X91632Y101513D01*
X92523Y101635D01*
X92534Y101641D01*
X92549Y101641D01*
X93490Y101975D01*
X93500Y101984D01*
X93514Y101987D01*
X94367Y102506D01*
X94375Y102517D01*
X94388Y102522D01*
X95118Y103205D01*
X95123Y103217D01*
X95135Y103225D01*
X95709Y104042D01*
X95712Y104054D01*
X95721Y104063D01*
X96250Y105221D01*
X96250Y105231D01*
X96257Y105240D01*
X96591Y106469D01*
X96590Y106478D01*
X96594Y106487D01*
X96808Y108227D01*
X96805Y108235D01*
X96808Y108243D01*
X96800Y109997D01*
X96797Y110004D01*
X96799Y110013D01*
X96569Y111752D01*
X96564Y111760D01*
X96565Y111771D01*
X96140Y113185D01*
X96132Y113194D01*
X96131Y113208D01*
X95437Y114511D01*
X95427Y114520D01*
X95422Y114534D01*
X94939Y115096D01*
X94925Y115103D01*
X94916Y115117D01*
X94311Y115544D01*
X94296Y115547D01*
X94284Y115559D01*
X93593Y115826D01*
X93578Y115825D01*
X93563Y115833D01*
X92828Y115924D01*
X92820Y115922D01*
X92812Y115925D01*
X87986Y115925D01*
X87984Y115924D01*
X87982Y115925D01*
X87967Y115918D01*
X87883Y115950D01*
X83545Y115925D01*
X82208Y116027D01*
X80913Y116376D01*
X80714Y116450D01*
X80689Y116449D01*
X80666Y116458D01*
X80642Y116447D01*
X80616Y116446D01*
X80599Y116427D01*
X80577Y116417D01*
X80566Y116390D01*
X80550Y116372D01*
X80552Y116353D01*
X80544Y116332D01*
X80544Y112298D01*
X80541Y112262D01*
X80550Y112234D01*
X80554Y112194D01*
X80573Y112157D01*
X80590Y112143D01*
X80595Y112132D01*
X80602Y112129D01*
X80619Y112106D01*
X80655Y112085D01*
X80672Y112082D01*
X80688Y112070D01*
X80968Y111994D01*
X80971Y111995D01*
X80974Y111993D01*
X82003Y111766D01*
X82026Y111757D01*
X82032Y111750D01*
X82034Y111742D01*
X82033Y111733D01*
X82017Y111709D01*
X81314Y110882D01*
X81310Y110871D01*
X81300Y110862D01*
X80760Y109911D01*
X80759Y109900D01*
X80751Y109890D01*
X80398Y108855D01*
X80399Y108843D01*
X80393Y108833D01*
X80152Y107215D01*
X80155Y107205D01*
X80151Y107194D01*
X80189Y105559D01*
X80194Y105548D01*
X80192Y105534D01*
X80500Y104162D01*
X80508Y104151D01*
X80509Y104136D01*
X81115Y102867D01*
X81125Y102858D01*
X81129Y102844D01*
X81471Y102396D01*
X81481Y102390D01*
X81487Y102378D01*
X81907Y102001D01*
X81918Y101997D01*
X81926Y101987D01*
X82409Y101695D01*
X82420Y101693D01*
X82430Y101685D01*
X83423Y101312D01*
X83434Y101312D01*
X83445Y101306D01*
X84489Y101117D01*
X84500Y101120D01*
X84512Y101115D01*
X85573Y101118D01*
G37*
G36*
X99943Y130260D02*
X99943Y130260D01*
X99963Y130258D01*
X99990Y130280D01*
X100015Y130290D01*
X100020Y130305D01*
X100034Y130315D01*
X102396Y134455D01*
X102400Y134490D01*
X102412Y134522D01*
X102405Y134537D01*
X102407Y134553D01*
X102385Y134580D01*
X102371Y134611D01*
X102355Y134618D01*
X102345Y134630D01*
X102318Y134632D01*
X102286Y134644D01*
X90856Y134644D01*
X96330Y140119D01*
X96332Y140122D01*
X96334Y140123D01*
X96367Y140208D01*
X96367Y144882D01*
X96367Y144884D01*
X96367Y144885D01*
X96347Y144929D01*
X96329Y144973D01*
X96327Y144973D01*
X96326Y144975D01*
X96282Y144991D01*
X96237Y145008D01*
X96235Y145007D01*
X96234Y145008D01*
X96151Y144970D01*
X90585Y139279D01*
X80690Y145876D01*
X80652Y145883D01*
X80615Y145897D01*
X80605Y145892D01*
X80593Y145894D01*
X80562Y145872D01*
X80526Y145855D01*
X80522Y145844D01*
X80513Y145838D01*
X80508Y145808D01*
X80494Y145770D01*
X80519Y140690D01*
X80526Y140673D01*
X80524Y140655D01*
X80546Y140626D01*
X80558Y140600D01*
X80570Y140595D01*
X80580Y140583D01*
X87558Y136350D01*
X87484Y136273D01*
X87361Y136147D01*
X86993Y135768D01*
X86871Y135642D01*
X86748Y135516D01*
X86380Y135137D01*
X86257Y135011D01*
X86135Y134885D01*
X85951Y134695D01*
X80543Y134695D01*
X80541Y134694D01*
X80539Y134695D01*
X80496Y134675D01*
X80452Y134657D01*
X80452Y134655D01*
X80450Y134654D01*
X80417Y134569D01*
X80417Y130429D01*
X80418Y130426D01*
X80417Y130423D01*
X80454Y130340D01*
X80505Y130289D01*
X80508Y130288D01*
X80509Y130285D01*
X80594Y130252D01*
X99924Y130252D01*
X99943Y130260D01*
G37*
G36*
X96319Y157152D02*
X96319Y157152D01*
X96321Y157151D01*
X96364Y157171D01*
X96408Y157189D01*
X96408Y157191D01*
X96410Y157192D01*
X96443Y157277D01*
X96443Y161417D01*
X96442Y161419D01*
X96443Y161421D01*
X96423Y161464D01*
X96405Y161508D01*
X96403Y161508D01*
X96402Y161510D01*
X96317Y161543D01*
X86320Y161543D01*
X85490Y161692D01*
X84722Y162035D01*
X84360Y162307D01*
X84059Y162648D01*
X83834Y163043D01*
X83611Y163732D01*
X83531Y164451D01*
X83598Y165172D01*
X83810Y165863D01*
X84098Y166373D01*
X84495Y166804D01*
X84980Y167131D01*
X85530Y167340D01*
X86734Y167565D01*
X87964Y167641D01*
X96266Y167641D01*
X96268Y167642D01*
X96270Y167641D01*
X96313Y167661D01*
X96357Y167679D01*
X96357Y167681D01*
X96359Y167682D01*
X96392Y167767D01*
X96392Y171983D01*
X96391Y171985D01*
X96392Y171987D01*
X96372Y172030D01*
X96354Y172074D01*
X96352Y172074D01*
X96351Y172076D01*
X96266Y172109D01*
X80645Y172109D01*
X80643Y172108D01*
X80641Y172109D01*
X80598Y172089D01*
X80554Y172071D01*
X80554Y172069D01*
X80552Y172068D01*
X80519Y171983D01*
X80519Y167970D01*
X80520Y167968D01*
X80519Y167966D01*
X80539Y167923D01*
X80557Y167879D01*
X80559Y167879D01*
X80560Y167877D01*
X80645Y167844D01*
X82702Y167844D01*
X82061Y167337D01*
X82057Y167329D01*
X82048Y167325D01*
X81941Y167212D01*
X81821Y167086D01*
X81582Y166834D01*
X81462Y166707D01*
X81342Y166581D01*
X81263Y166498D01*
X81260Y166489D01*
X81252Y166484D01*
X80593Y165554D01*
X80591Y165545D01*
X80583Y165537D01*
X80461Y165292D01*
X80460Y165281D01*
X80453Y165272D01*
X80372Y165010D01*
X80373Y165001D01*
X80368Y164992D01*
X80145Y163514D01*
X80147Y163506D01*
X80143Y163498D01*
X80113Y162004D01*
X80117Y161994D01*
X80114Y161983D01*
X80261Y160950D01*
X80267Y160940D01*
X80267Y160926D01*
X80610Y159940D01*
X80618Y159931D01*
X80620Y159918D01*
X81146Y159016D01*
X81156Y159009D01*
X81161Y158996D01*
X81389Y158742D01*
X81400Y158736D01*
X81408Y158725D01*
X82293Y158065D01*
X82304Y158062D01*
X82313Y158052D01*
X83303Y157564D01*
X83315Y157564D01*
X83325Y157556D01*
X84388Y157256D01*
X84399Y157258D01*
X84411Y157252D01*
X85510Y157151D01*
X85516Y157153D01*
X85522Y157151D01*
X96317Y157151D01*
X96319Y157152D01*
G37*
G36*
X96293Y174348D02*
X96293Y174348D01*
X96295Y174347D01*
X96338Y174367D01*
X96382Y174385D01*
X96382Y174387D01*
X96384Y174388D01*
X96417Y174473D01*
X96417Y178511D01*
X96416Y178513D01*
X96417Y178515D01*
X96397Y178558D01*
X96379Y178602D01*
X96377Y178602D01*
X96376Y178604D01*
X96291Y178637D01*
X94223Y178637D01*
X94252Y178679D01*
X94388Y178793D01*
X94766Y179070D01*
X94768Y179074D01*
X94773Y179076D01*
X95246Y179478D01*
X95250Y179485D01*
X95258Y179489D01*
X95674Y179950D01*
X95677Y179961D01*
X95687Y179968D01*
X96254Y180866D01*
X96257Y180879D01*
X96266Y180890D01*
X96635Y181887D01*
X96635Y181899D01*
X96642Y181912D01*
X96797Y182964D01*
X96794Y182974D01*
X96798Y182985D01*
X96777Y183820D01*
X96768Y184198D01*
X96759Y184577D01*
X96748Y184991D01*
X96744Y185002D01*
X96746Y185014D01*
X96540Y185991D01*
X96532Y186003D01*
X96531Y186019D01*
X96109Y186924D01*
X96098Y186933D01*
X96094Y186948D01*
X95476Y187733D01*
X95465Y187739D01*
X95459Y187751D01*
X94884Y188240D01*
X94873Y188243D01*
X94866Y188253D01*
X94217Y188637D01*
X94206Y188639D01*
X94197Y188647D01*
X93492Y188916D01*
X93483Y188916D01*
X93474Y188921D01*
X92367Y189161D01*
X92358Y189159D01*
X92350Y189164D01*
X91221Y189254D01*
X91216Y189252D01*
X91211Y189254D01*
X80670Y189254D01*
X80668Y189253D01*
X80666Y189254D01*
X80623Y189234D01*
X80579Y189216D01*
X80579Y189214D01*
X80577Y189213D01*
X80544Y189128D01*
X80544Y185039D01*
X80545Y185037D01*
X80544Y185035D01*
X80564Y184992D01*
X80582Y184948D01*
X80584Y184948D01*
X80585Y184946D01*
X80670Y184913D01*
X90316Y184913D01*
X91034Y184848D01*
X91722Y184657D01*
X92364Y184347D01*
X92751Y184051D01*
X93060Y183677D01*
X93277Y183242D01*
X93354Y182942D01*
X93371Y182626D01*
X93321Y181521D01*
X93234Y180965D01*
X93030Y180449D01*
X92716Y179992D01*
X92147Y179475D01*
X91468Y179112D01*
X90718Y178896D01*
X89935Y178815D01*
X80569Y178815D01*
X80567Y178814D01*
X80565Y178815D01*
X80522Y178795D01*
X80478Y178777D01*
X80478Y178775D01*
X80476Y178774D01*
X80443Y178689D01*
X80443Y174473D01*
X80444Y174471D01*
X80443Y174469D01*
X80463Y174426D01*
X80481Y174382D01*
X80483Y174382D01*
X80484Y174380D01*
X80569Y174347D01*
X96291Y174347D01*
X96293Y174348D01*
G37*
G36*
X89054Y214587D02*
X89054Y214587D01*
X89080Y214583D01*
X92636Y215396D01*
X92657Y215411D01*
X92686Y215420D01*
X95404Y217554D01*
X95416Y217576D01*
X95439Y217597D01*
X97116Y220975D01*
X97117Y220995D01*
X97128Y221016D01*
X97305Y222489D01*
X97303Y222496D01*
X97306Y222504D01*
X97306Y222555D01*
X97298Y222575D01*
X97297Y222601D01*
X97247Y222728D01*
X97227Y222749D01*
X97215Y222775D01*
X97193Y222784D01*
X97179Y222799D01*
X97155Y222798D01*
X97130Y222808D01*
X94209Y222808D01*
X94169Y222791D01*
X94128Y222779D01*
X94124Y222772D01*
X94118Y222770D01*
X94107Y222742D01*
X94084Y222699D01*
X93934Y221604D01*
X93299Y220456D01*
X92215Y219668D01*
X91326Y219272D01*
X89852Y218998D01*
X87993Y218948D01*
X86745Y219123D01*
X85596Y219497D01*
X84569Y220035D01*
X83561Y221683D01*
X83339Y223431D01*
X83931Y225182D01*
X84912Y226261D01*
X86122Y226804D01*
X87670Y227179D01*
X89095Y227179D01*
X91024Y226928D01*
X92636Y226184D01*
X93445Y225350D01*
X93958Y224397D01*
X94057Y223210D01*
X94057Y223114D01*
X94058Y223111D01*
X94057Y223108D01*
X94077Y223066D01*
X94095Y223023D01*
X94098Y223022D01*
X94100Y223019D01*
X94185Y222988D01*
X94187Y222988D01*
X97157Y223038D01*
X97166Y223042D01*
X97175Y223039D01*
X97210Y223061D01*
X97240Y223074D01*
X97246Y223077D01*
X97247Y223078D01*
X97250Y223087D01*
X97258Y223092D01*
X97271Y223143D01*
X97281Y223169D01*
X97281Y223170D01*
X97279Y223175D01*
X97280Y223180D01*
X97026Y225187D01*
X97020Y225198D01*
X97020Y225212D01*
X96461Y226838D01*
X96450Y226850D01*
X96446Y226869D01*
X95075Y228850D01*
X95062Y228858D01*
X95053Y228874D01*
X93783Y229966D01*
X93767Y229971D01*
X93752Y229985D01*
X91415Y231026D01*
X91398Y231027D01*
X91380Y231036D01*
X89195Y231316D01*
X89180Y231312D01*
X89164Y231316D01*
X87056Y231062D01*
X87048Y231058D01*
X87037Y231059D01*
X84573Y230373D01*
X84559Y230362D01*
X84540Y230358D01*
X83245Y229545D01*
X83236Y229533D01*
X83221Y229525D01*
X82078Y228331D01*
X82074Y228323D01*
X82066Y228317D01*
X81279Y227200D01*
X81275Y227183D01*
X81263Y227168D01*
X80628Y225314D01*
X80629Y225300D01*
X80621Y225286D01*
X80367Y222771D01*
X80372Y222757D01*
X80368Y222741D01*
X80774Y219744D01*
X80786Y219723D01*
X80792Y219694D01*
X82570Y216849D01*
X82591Y216835D01*
X82609Y216810D01*
X85098Y215210D01*
X85121Y215206D01*
X85146Y215191D01*
X89032Y214581D01*
X89054Y214587D01*
G37*
G36*
X85628Y67323D02*
X85628Y67323D01*
X85658Y67326D01*
X85659Y67327D01*
X85660Y67327D01*
X85669Y67338D01*
X85682Y67343D01*
X85685Y67349D01*
X85691Y67352D01*
X85703Y67382D01*
X85719Y67402D01*
X85719Y67404D01*
X85720Y67405D01*
X85719Y67420D01*
X85724Y67432D01*
X85723Y67435D01*
X85724Y67437D01*
X85724Y71298D01*
X85723Y71300D01*
X85724Y71302D01*
X85704Y71345D01*
X85686Y71389D01*
X85684Y71389D01*
X85683Y71391D01*
X85598Y71424D01*
X85551Y71424D01*
X85054Y71453D01*
X84592Y71600D01*
X84178Y71855D01*
X83735Y72297D01*
X83398Y72824D01*
X83181Y73411D01*
X83108Y73973D01*
X83108Y75303D01*
X83182Y75906D01*
X83379Y76473D01*
X83691Y76986D01*
X83775Y77070D01*
X83899Y77197D01*
X83975Y77274D01*
X84320Y77482D01*
X84705Y77599D01*
X85109Y77616D01*
X85504Y77531D01*
X85866Y77351D01*
X86170Y77085D01*
X86401Y76749D01*
X86871Y75642D01*
X87177Y74468D01*
X88040Y70837D01*
X88045Y70830D01*
X88045Y70821D01*
X88351Y70013D01*
X88357Y70006D01*
X88359Y69996D01*
X88786Y69245D01*
X88793Y69239D01*
X88797Y69229D01*
X89334Y68552D01*
X89344Y68547D01*
X89350Y68536D01*
X89735Y68199D01*
X89748Y68195D01*
X89757Y68184D01*
X90204Y67935D01*
X90217Y67934D01*
X90228Y67925D01*
X90717Y67773D01*
X90729Y67775D01*
X90742Y67768D01*
X91878Y67663D01*
X91891Y67666D01*
X91904Y67663D01*
X93038Y67792D01*
X93049Y67798D01*
X93063Y67797D01*
X94147Y68155D01*
X94156Y68163D01*
X94170Y68165D01*
X94692Y68464D01*
X94699Y68474D01*
X94712Y68479D01*
X95167Y68873D01*
X95172Y68884D01*
X95184Y68891D01*
X95553Y69367D01*
X95556Y69378D01*
X95565Y69387D01*
X96219Y70668D01*
X96220Y70679D01*
X96227Y70689D01*
X96638Y72067D01*
X96637Y72078D01*
X96643Y72090D01*
X96798Y73519D01*
X96796Y73526D01*
X96798Y73533D01*
X96798Y75336D01*
X96796Y75342D01*
X96798Y75349D01*
X96658Y76742D01*
X96653Y76751D01*
X96654Y76762D01*
X96286Y78113D01*
X96279Y78123D01*
X96277Y78136D01*
X95739Y79233D01*
X95729Y79242D01*
X95725Y79256D01*
X94968Y80215D01*
X94958Y80221D01*
X94953Y80232D01*
X94557Y80580D01*
X94548Y80583D01*
X94542Y80592D01*
X94100Y80878D01*
X94090Y80880D01*
X94083Y80887D01*
X93295Y81243D01*
X93290Y81243D01*
X93286Y81247D01*
X92728Y81450D01*
X92708Y81449D01*
X92703Y81451D01*
X92680Y81451D01*
X92660Y81455D01*
X92646Y81446D01*
X92634Y81455D01*
X92628Y81453D01*
X92621Y81457D01*
X91910Y81533D01*
X91902Y81530D01*
X91893Y81533D01*
X91856Y81516D01*
X91816Y81504D01*
X91812Y81496D01*
X91804Y81492D01*
X91784Y81442D01*
X91771Y81416D01*
X91773Y81412D01*
X91771Y81407D01*
X91771Y77521D01*
X91789Y77477D01*
X91807Y77433D01*
X91808Y77432D01*
X91809Y77430D01*
X91828Y77423D01*
X91889Y77395D01*
X92149Y77379D01*
X92392Y77324D01*
X92744Y77174D01*
X93057Y76956D01*
X93321Y76681D01*
X93592Y76258D01*
X93781Y75791D01*
X93879Y75295D01*
X93923Y74448D01*
X93879Y73599D01*
X93794Y73150D01*
X93637Y72726D01*
X93442Y72425D01*
X93174Y72192D01*
X92832Y72037D01*
X92460Y71989D01*
X92091Y72054D01*
X91730Y72238D01*
X91437Y72521D01*
X91021Y73196D01*
X90749Y73948D01*
X90345Y75971D01*
X90344Y75972D01*
X90344Y75973D01*
X89963Y77696D01*
X89958Y77703D01*
X89958Y77712D01*
X89348Y79368D01*
X89342Y79374D01*
X89341Y79384D01*
X88936Y80140D01*
X88929Y80146D01*
X88926Y80155D01*
X88418Y80847D01*
X88408Y80852D01*
X88403Y80864D01*
X88053Y81196D01*
X88041Y81201D01*
X88032Y81212D01*
X87620Y81464D01*
X87606Y81466D01*
X87594Y81476D01*
X86591Y81813D01*
X86576Y81812D01*
X86562Y81820D01*
X85507Y81914D01*
X85498Y81911D01*
X85487Y81914D01*
X84446Y81838D01*
X84438Y81834D01*
X84428Y81835D01*
X83764Y81693D01*
X83754Y81686D01*
X83741Y81685D01*
X83116Y81419D01*
X83107Y81411D01*
X83095Y81408D01*
X82531Y81029D01*
X82524Y81019D01*
X82513Y81014D01*
X81770Y80288D01*
X81766Y80278D01*
X81760Y80276D01*
X81760Y80274D01*
X81755Y80272D01*
X81149Y79428D01*
X81147Y79418D01*
X81138Y79409D01*
X80687Y78474D01*
X80686Y78463D01*
X80679Y78453D01*
X80397Y77453D01*
X80398Y77445D01*
X80393Y77436D01*
X80211Y76122D01*
X80213Y76115D01*
X80210Y76109D01*
X80163Y74782D01*
X80165Y74776D01*
X80163Y74769D01*
X80341Y72203D01*
X80346Y72194D01*
X80344Y72184D01*
X80556Y71263D01*
X80564Y71252D01*
X80565Y71238D01*
X80962Y70381D01*
X80969Y70375D01*
X80971Y70366D01*
X81733Y69172D01*
X81739Y69168D01*
X81742Y69159D01*
X82173Y68644D01*
X82184Y68639D01*
X82190Y68627D01*
X82714Y68207D01*
X82725Y68203D01*
X82734Y68193D01*
X83330Y67884D01*
X83339Y67883D01*
X83347Y67876D01*
X84617Y67444D01*
X84627Y67445D01*
X84636Y67440D01*
X85220Y67338D01*
X85227Y67339D01*
X85233Y67336D01*
X85589Y67311D01*
X85596Y67313D01*
X85602Y67311D01*
X85628Y67323D01*
G37*
G36*
X90072Y197562D02*
X90072Y197562D01*
X90081Y197566D01*
X90093Y197564D01*
X91583Y197862D01*
X91593Y197869D01*
X91606Y197869D01*
X93012Y198446D01*
X93020Y198454D01*
X93033Y198457D01*
X94304Y199291D01*
X94310Y199301D01*
X94322Y199306D01*
X95410Y200367D01*
X95415Y200378D01*
X95426Y200386D01*
X96291Y201635D01*
X96294Y201647D01*
X96303Y201656D01*
X96915Y203047D01*
X96915Y203059D01*
X96922Y203071D01*
X97255Y204577D01*
X97252Y204589D01*
X97258Y204602D01*
X97281Y206144D01*
X97278Y206153D01*
X97280Y206163D01*
X97091Y207597D01*
X97088Y207602D01*
X97089Y207608D01*
X96770Y209019D01*
X96765Y209027D01*
X96764Y209037D01*
X96307Y210194D01*
X96297Y210204D01*
X96294Y210218D01*
X95597Y211249D01*
X95586Y211256D01*
X95579Y211270D01*
X94676Y212125D01*
X94664Y212130D01*
X94655Y212142D01*
X93588Y212782D01*
X93576Y212784D01*
X93567Y212793D01*
X92412Y213217D01*
X92402Y213217D01*
X92393Y213222D01*
X91185Y213459D01*
X91171Y213456D01*
X91157Y213461D01*
X91124Y213446D01*
X91089Y213439D01*
X91081Y213426D01*
X91068Y213420D01*
X91052Y213381D01*
X91036Y213355D01*
X91039Y213345D01*
X91035Y213335D01*
X91035Y209144D01*
X91036Y209142D01*
X91035Y209140D01*
X91055Y209097D01*
X91073Y209053D01*
X91075Y209053D01*
X91076Y209051D01*
X91161Y209018D01*
X91179Y209018D01*
X91758Y208951D01*
X92300Y208758D01*
X92785Y208447D01*
X93186Y208034D01*
X93484Y207541D01*
X93745Y206749D01*
X93828Y205917D01*
X93762Y205077D01*
X93581Y204256D01*
X93395Y203842D01*
X93105Y203495D01*
X92194Y202808D01*
X91169Y202303D01*
X90066Y201998D01*
X88925Y201905D01*
X87365Y202034D01*
X85841Y202380D01*
X85124Y202695D01*
X84505Y203170D01*
X84016Y203778D01*
X83686Y204486D01*
X83505Y205265D01*
X83464Y206066D01*
X83537Y206656D01*
X83710Y207225D01*
X83978Y207755D01*
X84323Y208198D01*
X84755Y208556D01*
X85345Y208877D01*
X85982Y209092D01*
X86658Y209196D01*
X86694Y209218D01*
X86732Y209236D01*
X86735Y209244D01*
X86742Y209248D01*
X86748Y209278D01*
X86765Y209321D01*
X86765Y213385D01*
X86764Y213387D01*
X86765Y213389D01*
X86745Y213432D01*
X86727Y213476D01*
X86725Y213476D01*
X86724Y213478D01*
X86639Y213511D01*
X86589Y213511D01*
X86585Y213510D01*
X86581Y213511D01*
X86106Y213479D01*
X86099Y213475D01*
X86089Y213477D01*
X85624Y213382D01*
X85615Y213376D01*
X85603Y213376D01*
X84212Y212834D01*
X84203Y212825D01*
X84189Y212822D01*
X82938Y212007D01*
X82931Y211996D01*
X82918Y211991D01*
X81860Y210938D01*
X81855Y210926D01*
X81843Y210918D01*
X81023Y209670D01*
X81020Y209659D01*
X81012Y209650D01*
X80550Y208557D01*
X80550Y208547D01*
X80544Y208538D01*
X80262Y207385D01*
X80263Y207375D01*
X80259Y207365D01*
X80163Y206182D01*
X80166Y206174D01*
X80163Y206164D01*
X80262Y204578D01*
X80265Y204571D01*
X80264Y204564D01*
X80546Y203000D01*
X80551Y202992D01*
X80550Y202982D01*
X80905Y201912D01*
X80911Y201904D01*
X80913Y201893D01*
X81439Y200896D01*
X81447Y200889D01*
X81451Y200878D01*
X82135Y199982D01*
X82144Y199977D01*
X82149Y199967D01*
X82972Y199196D01*
X82981Y199192D01*
X82988Y199183D01*
X84004Y198501D01*
X84014Y198499D01*
X84022Y198491D01*
X85133Y197977D01*
X85142Y197977D01*
X85151Y197970D01*
X86329Y197636D01*
X86339Y197637D01*
X86348Y197632D01*
X87564Y197487D01*
X87573Y197489D01*
X87583Y197486D01*
X90072Y197562D01*
G37*
G36*
X93604Y144527D02*
X93604Y144527D01*
X93605Y144527D01*
X93688Y144564D01*
X96355Y147231D01*
X96357Y147234D01*
X96359Y147235D01*
X96392Y147320D01*
X96392Y148566D01*
X96723Y148566D01*
X96725Y148567D01*
X96732Y148567D01*
X96733Y148566D01*
X98867Y148743D01*
X98877Y148748D01*
X98889Y148747D01*
X99456Y148895D01*
X99465Y148902D01*
X99477Y148903D01*
X100008Y149152D01*
X100016Y149160D01*
X100028Y149163D01*
X100505Y149503D01*
X100511Y149513D01*
X100523Y149519D01*
X101233Y150262D01*
X101237Y150273D01*
X101248Y150281D01*
X101798Y151149D01*
X101800Y151161D01*
X101809Y151171D01*
X102178Y152129D01*
X102178Y152142D01*
X102185Y152153D01*
X102359Y153166D01*
X102357Y153176D01*
X102361Y153187D01*
X102361Y154737D01*
X102360Y154740D01*
X102361Y154744D01*
X102285Y156061D01*
X102285Y156083D01*
X102284Y156085D01*
X102285Y156087D01*
X102265Y156130D01*
X102247Y156174D01*
X102245Y156174D01*
X102244Y156176D01*
X102159Y156209D01*
X99136Y156209D01*
X99134Y156208D01*
X99132Y156209D01*
X99089Y156189D01*
X99045Y156171D01*
X99045Y156169D01*
X99043Y156168D01*
X99010Y156083D01*
X99010Y156007D01*
X99012Y156002D01*
X99010Y155995D01*
X99036Y155715D01*
X99121Y154800D01*
X99038Y153900D01*
X98941Y153618D01*
X98771Y153378D01*
X98539Y153196D01*
X98116Y153021D01*
X97654Y152958D01*
X96392Y152958D01*
X96392Y155804D01*
X96391Y155806D01*
X96392Y155808D01*
X96372Y155851D01*
X96354Y155895D01*
X96352Y155895D01*
X96351Y155897D01*
X96266Y155930D01*
X93599Y155930D01*
X93597Y155929D01*
X93595Y155930D01*
X93552Y155910D01*
X93508Y155892D01*
X93508Y155890D01*
X93506Y155889D01*
X93473Y155804D01*
X93473Y152932D01*
X80569Y152932D01*
X80567Y152931D01*
X80565Y152932D01*
X80522Y152912D01*
X80478Y152894D01*
X80478Y152892D01*
X80476Y152891D01*
X80443Y152806D01*
X80443Y148641D01*
X80444Y148639D01*
X80443Y148637D01*
X80463Y148594D01*
X80481Y148550D01*
X80483Y148550D01*
X80484Y148548D01*
X80569Y148515D01*
X93449Y148515D01*
X93473Y144652D01*
X93473Y144651D01*
X93493Y144606D01*
X93512Y144562D01*
X93513Y144561D01*
X93558Y144544D01*
X93604Y144527D01*
X93604Y144527D01*
G37*
G36*
X95555Y118416D02*
X95555Y118416D01*
X95593Y118432D01*
X95632Y118442D01*
X95637Y118451D01*
X95646Y118454D01*
X95657Y118483D01*
X95679Y118520D01*
X96365Y122381D01*
X96362Y122394D01*
X96367Y122407D01*
X96352Y122441D01*
X96343Y122477D01*
X96332Y122484D01*
X96326Y122496D01*
X96285Y122512D01*
X96259Y122528D01*
X96250Y122526D01*
X96241Y122529D01*
X93461Y122529D01*
X93476Y122576D01*
X93744Y122755D01*
X94786Y123441D01*
X94790Y123446D01*
X94797Y123449D01*
X95180Y123765D01*
X95187Y123778D01*
X95200Y123786D01*
X95502Y124180D01*
X95503Y124185D01*
X95507Y124188D01*
X96092Y125077D01*
X96093Y125080D01*
X96096Y125083D01*
X96449Y125694D01*
X96451Y125706D01*
X96460Y125717D01*
X96683Y126387D01*
X96682Y126399D01*
X96688Y126411D01*
X96772Y127112D01*
X96769Y127122D01*
X96773Y127134D01*
X96697Y128506D01*
X96676Y128549D01*
X96656Y128592D01*
X96654Y128593D01*
X96654Y128594D01*
X96636Y128600D01*
X96571Y128625D01*
X92710Y128625D01*
X92708Y128624D01*
X92706Y128625D01*
X92663Y128605D01*
X92619Y128587D01*
X92619Y128585D01*
X92617Y128584D01*
X92584Y128499D01*
X92584Y128473D01*
X92588Y128464D01*
X92585Y128453D01*
X92610Y128301D01*
X92612Y128298D01*
X92611Y128295D01*
X92736Y127698D01*
X92736Y126173D01*
X92644Y125631D01*
X92463Y125113D01*
X92199Y124634D01*
X91639Y123967D01*
X90947Y123442D01*
X90154Y123081D01*
X89335Y122881D01*
X88489Y122808D01*
X80670Y122808D01*
X80668Y122807D01*
X80666Y122808D01*
X80623Y122788D01*
X80579Y122770D01*
X80579Y122768D01*
X80577Y122767D01*
X80544Y122682D01*
X80544Y118516D01*
X80545Y118514D01*
X80544Y118512D01*
X80564Y118469D01*
X80582Y118425D01*
X80584Y118424D01*
X80585Y118422D01*
X80670Y118390D01*
X95555Y118416D01*
G37*
%LPC*%
G36*
X87184Y87985D02*
X87184Y87985D01*
X86415Y88109D01*
X85740Y88334D01*
X85728Y88333D01*
X85716Y88339D01*
X85679Y88344D01*
X85652Y88336D01*
X85641Y88336D01*
X85628Y88364D01*
X85608Y88408D01*
X85607Y88408D01*
X85607Y88409D01*
X85522Y88442D01*
X85484Y88442D01*
X85425Y88454D01*
X85365Y88496D01*
X85364Y88496D01*
X85363Y88497D01*
X85287Y88548D01*
X85281Y88549D01*
X85276Y88555D01*
X84712Y88854D01*
X84243Y89266D01*
X83880Y89775D01*
X83590Y90453D01*
X83438Y91175D01*
X83432Y92085D01*
X83611Y92976D01*
X83949Y93715D01*
X84465Y94341D01*
X85123Y94813D01*
X85884Y95102D01*
X87831Y95406D01*
X89802Y95403D01*
X90772Y95212D01*
X91671Y94809D01*
X92457Y94212D01*
X93087Y93453D01*
X93347Y92953D01*
X93503Y92411D01*
X93549Y91844D01*
X93498Y90769D01*
X93424Y90397D01*
X93262Y90059D01*
X92706Y89347D01*
X92026Y88749D01*
X91319Y88336D01*
X90545Y88069D01*
X89730Y87959D01*
X87184Y87985D01*
G37*
%LPD*%
%LPC*%
G36*
X84573Y105460D02*
X84573Y105460D01*
X84265Y105531D01*
X83980Y105666D01*
X83730Y105857D01*
X83433Y106219D01*
X83230Y106640D01*
X83133Y107101D01*
X83083Y108629D01*
X83232Y109671D01*
X83354Y109993D01*
X83539Y110284D01*
X83866Y110622D01*
X84110Y110875D01*
X84258Y111028D01*
X84477Y111178D01*
X84726Y111285D01*
X84891Y111332D01*
X85961Y111539D01*
X87050Y111609D01*
X87884Y111609D01*
X87886Y111610D01*
X87888Y111609D01*
X87931Y111629D01*
X87933Y111629D01*
X87986Y111609D01*
X88278Y111609D01*
X88151Y111467D01*
X88146Y111452D01*
X88133Y111441D01*
X88026Y111234D01*
X88025Y111222D01*
X88017Y111212D01*
X87729Y110248D01*
X87730Y110240D01*
X87726Y110233D01*
X87557Y109241D01*
X87558Y109237D01*
X87555Y109233D01*
X87403Y107790D01*
X87298Y107240D01*
X87101Y106722D01*
X86817Y106248D01*
X86573Y105980D01*
X86275Y105776D01*
X85733Y105556D01*
X85158Y105449D01*
X84573Y105460D01*
G37*
%LPD*%
D10*
X129545Y32385D02*
X130689Y33529D01*
X130689Y35817D01*
X129545Y36961D01*
X128401Y36961D01*
X127257Y35817D01*
X127257Y34673D01*
X127257Y35817D02*
X126113Y36961D01*
X124969Y36961D01*
X123825Y35817D01*
X123825Y33529D01*
X124969Y32385D01*
X124969Y39869D02*
X123825Y39869D01*
X124969Y39869D02*
X124969Y41013D01*
X123825Y41013D01*
X123825Y39869D01*
X129545Y43611D02*
X130689Y44755D01*
X130689Y47043D01*
X129545Y48187D01*
X128401Y48187D01*
X127257Y47043D01*
X127257Y45899D01*
X127257Y47043D02*
X126113Y48187D01*
X124969Y48187D01*
X123825Y47043D01*
X123825Y44755D01*
X124969Y43611D01*
X126113Y51095D02*
X130689Y51095D01*
X126113Y51095D02*
X123825Y53383D01*
X126113Y55671D01*
X130689Y55671D01*
X143389Y36961D02*
X143389Y32385D01*
X139957Y32385D01*
X141101Y34673D01*
X141101Y35817D01*
X139957Y36961D01*
X137669Y36961D01*
X136525Y35817D01*
X136525Y33529D01*
X137669Y32385D01*
X138813Y39869D02*
X143389Y39869D01*
X138813Y39869D02*
X136525Y42157D01*
X138813Y44445D01*
X143389Y44445D01*
D11*
X127635Y26035D03*
X140335Y26035D03*
D12*
X96291Y174473D02*
X80569Y174473D01*
X96291Y174473D02*
X96291Y178511D01*
X94082Y178511D01*
X94082Y178587D01*
X94084Y178615D01*
X94088Y178643D01*
X94097Y178670D01*
X94108Y178696D01*
X94122Y178721D01*
X94139Y178744D01*
X94158Y178765D01*
X94207Y178809D01*
X94258Y178852D01*
X94310Y178892D01*
X94691Y179172D01*
X94789Y179247D01*
X94886Y179325D01*
X94981Y179406D01*
X95073Y179489D01*
X95164Y179574D01*
X95252Y179662D01*
X95337Y179752D01*
X95421Y179844D01*
X95501Y179938D01*
X95580Y180035D01*
X95580Y180034D02*
X95665Y180145D01*
X95746Y180257D01*
X95825Y180372D01*
X95900Y180489D01*
X95972Y180607D01*
X96041Y180728D01*
X96106Y180850D01*
X96169Y180975D01*
X96227Y181101D01*
X96283Y181228D01*
X96334Y181357D01*
X96383Y181487D01*
X96427Y181619D01*
X96468Y181751D01*
X96506Y181885D01*
X96540Y182020D01*
X96570Y182155D01*
X96596Y182292D01*
X96619Y182429D01*
X96638Y182566D01*
X96653Y182705D01*
X96665Y182843D01*
X96672Y182982D01*
X96682Y183317D01*
X96685Y183651D01*
X96680Y183986D01*
X96668Y184320D01*
X96649Y184654D01*
X96622Y184988D01*
X96608Y185118D01*
X96590Y185248D01*
X96568Y185376D01*
X96543Y185504D01*
X96513Y185631D01*
X96480Y185758D01*
X96443Y185883D01*
X96402Y186007D01*
X96358Y186130D01*
X96310Y186251D01*
X96258Y186371D01*
X96203Y186489D01*
X96144Y186606D01*
X96082Y186720D01*
X96017Y186833D01*
X95948Y186944D01*
X95875Y187053D01*
X95800Y187159D01*
X95721Y187263D01*
X95640Y187365D01*
X95555Y187464D01*
X95467Y187561D01*
X95377Y187655D01*
X95287Y187743D01*
X95194Y187829D01*
X95100Y187912D01*
X95003Y187992D01*
X94903Y188069D01*
X94802Y188144D01*
X94698Y188216D01*
X94593Y188284D01*
X94485Y188350D01*
X94376Y188413D01*
X94265Y188472D01*
X94152Y188529D01*
X94038Y188582D01*
X93922Y188632D01*
X93805Y188678D01*
X93687Y188722D01*
X93567Y188761D01*
X93447Y188798D01*
X93248Y188853D01*
X93048Y188902D01*
X92847Y188947D01*
X92645Y188987D01*
X92442Y189022D01*
X92238Y189052D01*
X92033Y189077D01*
X91828Y189098D01*
X91623Y189113D01*
X91417Y189123D01*
X91211Y189128D01*
X80670Y189128D01*
X80670Y185039D01*
X90322Y185039D01*
X90445Y185037D01*
X90568Y185032D01*
X90691Y185022D01*
X90814Y185010D01*
X90935Y184993D01*
X91057Y184973D01*
X91178Y184949D01*
X91298Y184921D01*
X91417Y184890D01*
X91535Y184856D01*
X91652Y184818D01*
X91768Y184776D01*
X91882Y184731D01*
X91995Y184682D01*
X92107Y184630D01*
X92217Y184575D01*
X92325Y184517D01*
X92431Y184455D01*
X92508Y184407D01*
X92583Y184355D01*
X92656Y184301D01*
X92726Y184244D01*
X92795Y184184D01*
X92861Y184121D01*
X92924Y184056D01*
X92985Y183988D01*
X93042Y183918D01*
X93097Y183846D01*
X93149Y183771D01*
X93199Y183695D01*
X93244Y183616D01*
X93287Y183536D01*
X93327Y183454D01*
X93363Y183371D01*
X93396Y183286D01*
X93420Y183215D01*
X93441Y183144D01*
X93459Y183071D01*
X93473Y182998D01*
X93485Y182924D01*
X93493Y182850D01*
X93498Y182775D01*
X93499Y182701D01*
X93497Y182626D01*
X93498Y182626D02*
X93448Y181508D01*
X93447Y181508D02*
X93440Y181411D01*
X93431Y181314D01*
X93418Y181218D01*
X93401Y181122D01*
X93380Y181026D01*
X93357Y180932D01*
X93329Y180838D01*
X93298Y180746D01*
X93264Y180655D01*
X93226Y180565D01*
X93186Y180477D01*
X93141Y180390D01*
X93094Y180305D01*
X93043Y180221D01*
X92990Y180140D01*
X92933Y180061D01*
X92874Y179983D01*
X92812Y179909D01*
X92811Y179908D02*
X92740Y179829D01*
X92667Y179751D01*
X92590Y179676D01*
X92512Y179604D01*
X92431Y179534D01*
X92348Y179467D01*
X92263Y179403D01*
X92176Y179341D01*
X92086Y179283D01*
X91995Y179227D01*
X91902Y179174D01*
X91808Y179124D01*
X91712Y179078D01*
X91614Y179034D01*
X91515Y178994D01*
X91516Y178994D02*
X91400Y178951D01*
X91282Y178911D01*
X91164Y178874D01*
X91044Y178841D01*
X90924Y178811D01*
X90803Y178784D01*
X90681Y178760D01*
X90559Y178740D01*
X90436Y178723D01*
X90313Y178709D01*
X90189Y178699D01*
X90065Y178693D01*
X89941Y178689D01*
X89599Y178687D01*
X89257Y178689D01*
X89256Y178689D02*
X80569Y178689D01*
X80569Y174473D01*
X94031Y222809D02*
X97257Y222809D01*
X94031Y222809D02*
X94031Y222580D01*
X94029Y222470D01*
X94023Y222360D01*
X94014Y222250D01*
X94000Y222140D01*
X93983Y222031D01*
X93962Y221923D01*
X93937Y221815D01*
X93908Y221709D01*
X93876Y221603D01*
X93839Y221499D01*
X93800Y221396D01*
X93757Y221295D01*
X93710Y221195D01*
X93659Y221096D01*
X93606Y221000D01*
X93549Y220905D01*
X93488Y220813D01*
X93425Y220723D01*
X93358Y220635D01*
X93289Y220549D01*
X93216Y220466D01*
X93141Y220386D01*
X93062Y220308D01*
X92981Y220233D01*
X92898Y220160D01*
X92812Y220091D01*
X92700Y220006D01*
X92585Y219925D01*
X92469Y219846D01*
X92350Y219771D01*
X92230Y219698D01*
X92107Y219629D01*
X91983Y219564D01*
X91857Y219501D01*
X91730Y219442D01*
X91601Y219387D01*
X91470Y219335D01*
X91338Y219286D01*
X91205Y219241D01*
X91071Y219200D01*
X90936Y219162D01*
X90799Y219127D01*
X90662Y219097D01*
X90524Y219070D01*
X90386Y219047D01*
X90246Y219027D01*
X90107Y219011D01*
X89967Y218999D01*
X89615Y218977D01*
X89263Y218964D01*
X88911Y218959D01*
X88558Y218963D01*
X88206Y218975D01*
X87854Y218995D01*
X87503Y219024D01*
X87354Y219040D01*
X87205Y219060D01*
X87056Y219083D01*
X86909Y219110D01*
X86762Y219140D01*
X86615Y219174D01*
X86470Y219212D01*
X86326Y219254D01*
X86183Y219299D01*
X86040Y219347D01*
X85900Y219399D01*
X85760Y219454D01*
X85622Y219513D01*
X85485Y219576D01*
X85350Y219641D01*
X85217Y219710D01*
X85117Y219766D01*
X85019Y219825D01*
X84924Y219887D01*
X84830Y219953D01*
X84739Y220022D01*
X84650Y220094D01*
X84564Y220169D01*
X84480Y220247D01*
X84400Y220328D01*
X84322Y220411D01*
X84247Y220498D01*
X84175Y220586D01*
X84106Y220678D01*
X84041Y220771D01*
X83979Y220867D01*
X83920Y220965D01*
X83865Y221065D01*
X83813Y221167D01*
X83765Y221271D01*
X83720Y221376D01*
X83679Y221482D01*
X83642Y221590D01*
X83603Y221716D01*
X83567Y221844D01*
X83536Y221972D01*
X83508Y222101D01*
X83483Y222231D01*
X83463Y222362D01*
X83446Y222493D01*
X83433Y222625D01*
X83424Y222757D01*
X83419Y222889D01*
X83417Y223021D01*
X83419Y223153D01*
X83425Y223285D01*
X83435Y223417D01*
X83449Y223549D01*
X83466Y223680D01*
X83488Y223810D01*
X83513Y223940D01*
X83541Y224069D01*
X83574Y224197D01*
X83610Y224325D01*
X83650Y224451D01*
X83693Y224576D01*
X83740Y224699D01*
X83791Y224821D01*
X83845Y224942D01*
X83891Y225038D01*
X83941Y225132D01*
X83994Y225225D01*
X84051Y225316D01*
X84110Y225405D01*
X84172Y225492D01*
X84237Y225576D01*
X84305Y225659D01*
X84376Y225739D01*
X84450Y225816D01*
X84526Y225891D01*
X84604Y225964D01*
X84685Y226033D01*
X84769Y226100D01*
X84854Y226164D01*
X84942Y226225D01*
X85032Y226283D01*
X85123Y226338D01*
X85217Y226390D01*
X85361Y226464D01*
X85506Y226534D01*
X85653Y226602D01*
X85801Y226665D01*
X85951Y226725D01*
X86102Y226781D01*
X86255Y226834D01*
X86408Y226883D01*
X86563Y226929D01*
X86719Y226970D01*
X86876Y227008D01*
X87034Y227042D01*
X87192Y227073D01*
X87352Y227099D01*
X87511Y227122D01*
X87672Y227141D01*
X87832Y227156D01*
X87994Y227167D01*
X88155Y227174D01*
X88316Y227178D01*
X88570Y227177D01*
X88823Y227170D01*
X89077Y227157D01*
X89329Y227138D01*
X89582Y227113D01*
X89833Y227082D01*
X90084Y227045D01*
X90334Y227002D01*
X90583Y226953D01*
X90830Y226898D01*
X90960Y226866D01*
X91090Y226829D01*
X91219Y226790D01*
X91346Y226747D01*
X91473Y226701D01*
X91598Y226651D01*
X91721Y226598D01*
X91844Y226542D01*
X91964Y226483D01*
X92083Y226420D01*
X92201Y226354D01*
X92316Y226285D01*
X92430Y226213D01*
X92542Y226138D01*
X92652Y226060D01*
X92759Y225979D01*
X92864Y225896D01*
X92968Y225809D01*
X93068Y225720D01*
X93167Y225628D01*
X93235Y225560D01*
X93301Y225490D01*
X93363Y225418D01*
X93423Y225343D01*
X93480Y225266D01*
X93535Y225187D01*
X93586Y225107D01*
X93634Y225024D01*
X93680Y224939D01*
X93722Y224853D01*
X93761Y224766D01*
X93796Y224677D01*
X93828Y224587D01*
X93828Y224586D02*
X93869Y224459D01*
X93906Y224331D01*
X93940Y224202D01*
X93970Y224072D01*
X93997Y223941D01*
X94020Y223810D01*
X94040Y223677D01*
X94055Y223545D01*
X94068Y223412D01*
X94076Y223279D01*
X94081Y223145D01*
X94082Y223012D01*
X97257Y223012D01*
X97257Y223164D01*
X97255Y223369D01*
X97248Y223575D01*
X97236Y223780D01*
X97220Y223984D01*
X97199Y224189D01*
X97173Y224393D01*
X97143Y224596D01*
X97109Y224798D01*
X97069Y225000D01*
X97025Y225200D01*
X96977Y225400D01*
X96930Y225576D01*
X96879Y225751D01*
X96824Y225925D01*
X96764Y226097D01*
X96701Y226268D01*
X96634Y226437D01*
X96563Y226605D01*
X96488Y226771D01*
X96409Y226936D01*
X96326Y227098D01*
X96240Y227258D01*
X96150Y227417D01*
X96056Y227573D01*
X95959Y227727D01*
X95857Y227879D01*
X95753Y228028D01*
X95645Y228175D01*
X95534Y228319D01*
X95419Y228461D01*
X95301Y228600D01*
X95300Y228600D02*
X95173Y228743D01*
X95042Y228883D01*
X94908Y229020D01*
X94770Y229153D01*
X94630Y229283D01*
X94486Y229410D01*
X94340Y229533D01*
X94190Y229653D01*
X94038Y229769D01*
X93882Y229881D01*
X93725Y229990D01*
X93564Y230095D01*
X93401Y230196D01*
X93236Y230293D01*
X93069Y230386D01*
X92899Y230475D01*
X92727Y230560D01*
X92554Y230640D01*
X92378Y230717D01*
X92200Y230789D01*
X92021Y230857D01*
X91841Y230921D01*
X91658Y230980D01*
X91475Y231035D01*
X91290Y231085D01*
X91104Y231131D01*
X90917Y231173D01*
X90729Y231210D01*
X90540Y231243D01*
X90351Y231271D01*
X90161Y231294D01*
X89970Y231313D01*
X89779Y231327D01*
X89588Y231337D01*
X89396Y231342D01*
X89205Y231343D01*
X88904Y231337D01*
X88602Y231323D01*
X88301Y231302D01*
X88000Y231273D01*
X87700Y231237D01*
X87402Y231194D01*
X87104Y231143D01*
X86808Y231086D01*
X86513Y231020D01*
X86220Y230948D01*
X85928Y230869D01*
X85639Y230782D01*
X85352Y230689D01*
X85067Y230588D01*
X84785Y230480D01*
X84785Y230481D02*
X84634Y230419D01*
X84484Y230353D01*
X84336Y230284D01*
X84190Y230211D01*
X84045Y230135D01*
X83903Y230055D01*
X83762Y229972D01*
X83623Y229885D01*
X83487Y229795D01*
X83353Y229702D01*
X83221Y229606D01*
X83091Y229506D01*
X82964Y229403D01*
X82840Y229297D01*
X82718Y229189D01*
X82599Y229077D01*
X82482Y228962D01*
X82369Y228845D01*
X82258Y228725D01*
X82150Y228602D01*
X82045Y228477D01*
X81944Y228349D01*
X81845Y228218D01*
X81750Y228086D01*
X81658Y227951D01*
X81569Y227813D01*
X81484Y227674D01*
X81402Y227533D01*
X81323Y227390D01*
X81248Y227244D01*
X81176Y227098D01*
X81109Y226949D01*
X81044Y226799D01*
X80984Y226647D01*
X80927Y226494D01*
X80874Y226339D01*
X80795Y226089D01*
X80721Y225838D01*
X80654Y225585D01*
X80592Y225330D01*
X80537Y225075D01*
X80488Y224817D01*
X80445Y224559D01*
X80408Y224300D01*
X80377Y224040D01*
X80352Y223779D01*
X80333Y223518D01*
X80321Y223256D01*
X80315Y222995D01*
X80315Y222733D01*
X80320Y222520D01*
X80330Y222307D01*
X80345Y222094D01*
X80366Y221881D01*
X80391Y221669D01*
X80422Y221458D01*
X80458Y221247D01*
X80498Y221038D01*
X80544Y220829D01*
X80595Y220622D01*
X80651Y220416D01*
X80712Y220211D01*
X80778Y220008D01*
X80848Y219806D01*
X80924Y219607D01*
X81004Y219409D01*
X81089Y219213D01*
X81178Y219019D01*
X81273Y218827D01*
X81372Y218638D01*
X81475Y218451D01*
X81583Y218267D01*
X81695Y218086D01*
X81812Y217907D01*
X81933Y217731D01*
X82058Y217558D01*
X82187Y217388D01*
X82321Y217221D01*
X82412Y217112D01*
X82507Y217006D01*
X82603Y216901D01*
X82702Y216800D01*
X82804Y216700D01*
X82908Y216603D01*
X83015Y216509D01*
X83123Y216417D01*
X83234Y216328D01*
X83347Y216242D01*
X83463Y216159D01*
X83580Y216078D01*
X83699Y216000D01*
X83820Y215925D01*
X83821Y215925D02*
X83992Y215825D01*
X84167Y215728D01*
X84343Y215636D01*
X84521Y215548D01*
X84702Y215464D01*
X84884Y215384D01*
X85069Y215309D01*
X85255Y215238D01*
X85442Y215172D01*
X85632Y215110D01*
X85822Y215052D01*
X86014Y214999D01*
X86207Y214951D01*
X86401Y214907D01*
X86597Y214868D01*
X86793Y214833D01*
X86792Y214833D02*
X87065Y214792D01*
X87338Y214757D01*
X87611Y214729D01*
X87886Y214708D01*
X88161Y214693D01*
X88436Y214685D01*
X88711Y214683D01*
X88986Y214688D01*
X89261Y214700D01*
X89536Y214719D01*
X89810Y214744D01*
X90083Y214776D01*
X90356Y214814D01*
X90627Y214859D01*
X90811Y214894D01*
X90995Y214934D01*
X91177Y214978D01*
X91359Y215026D01*
X91539Y215078D01*
X91718Y215135D01*
X91895Y215196D01*
X92071Y215262D01*
X92246Y215331D01*
X92418Y215405D01*
X92589Y215483D01*
X92758Y215565D01*
X92925Y215650D01*
X93090Y215740D01*
X93253Y215834D01*
X93413Y215931D01*
X93571Y216033D01*
X93727Y216138D01*
X93880Y216247D01*
X94030Y216359D01*
X94178Y216475D01*
X94322Y216594D01*
X94464Y216717D01*
X94603Y216844D01*
X94739Y216973D01*
X94872Y217106D01*
X95002Y217242D01*
X95128Y217381D01*
X95251Y217523D01*
X95370Y217667D01*
X95486Y217815D01*
X95599Y217965D01*
X95708Y218118D01*
X95813Y218274D01*
X95914Y218432D01*
X96012Y218592D01*
X96118Y218776D01*
X96219Y218961D01*
X96316Y219149D01*
X96408Y219340D01*
X96496Y219532D01*
X96580Y219726D01*
X96659Y219923D01*
X96733Y220121D01*
X96802Y220321D01*
X96867Y220522D01*
X96927Y220725D01*
X96982Y220929D01*
X97032Y221135D01*
X97077Y221341D01*
X97118Y221549D01*
X97153Y221757D01*
X97184Y221967D01*
X97210Y222177D01*
X97231Y222387D01*
X97246Y222598D01*
X97257Y222809D01*
D13*
X82995Y194044D03*
D14*
X152400Y146050D02*
X152400Y133350D01*
X158750Y127000D01*
X171450Y127000D02*
X177800Y133350D01*
X152400Y171450D02*
X158750Y177800D01*
X152400Y171450D02*
X152400Y158750D01*
X158750Y152400D01*
X171450Y152400D02*
X177800Y158750D01*
X177800Y171450D01*
X171450Y177800D01*
X158750Y152400D02*
X152400Y146050D01*
X171450Y152400D02*
X177800Y146050D01*
X177800Y133350D01*
X152400Y209550D02*
X152400Y222250D01*
X152400Y209550D02*
X158750Y203200D01*
X171450Y203200D02*
X177800Y209550D01*
X158750Y203200D02*
X152400Y196850D01*
X152400Y184150D01*
X158750Y177800D01*
X171450Y177800D02*
X177800Y184150D01*
X177800Y196850D01*
X171450Y203200D01*
X152400Y247650D02*
X158750Y254000D01*
X152400Y247650D02*
X152400Y234950D01*
X158750Y228600D01*
X171450Y228600D02*
X177800Y234950D01*
X177800Y247650D01*
X171450Y254000D01*
X158750Y228600D02*
X152400Y222250D01*
X171450Y228600D02*
X177800Y222250D01*
X177800Y209550D01*
X152400Y285750D02*
X152400Y298450D01*
X152400Y285750D02*
X158750Y279400D01*
X171450Y279400D02*
X177800Y285750D01*
X158750Y279400D02*
X152400Y273050D01*
X152400Y260350D01*
X158750Y254000D01*
X171450Y254000D02*
X177800Y260350D01*
X177800Y273050D01*
X171450Y279400D01*
X171450Y304800D02*
X158750Y304800D01*
X152400Y298450D01*
X171450Y304800D02*
X177800Y298450D01*
X177800Y285750D01*
X152400Y120650D02*
X152400Y107950D01*
X158750Y101600D01*
X171450Y101600D02*
X177800Y107950D01*
X158750Y127000D02*
X152400Y120650D01*
X171450Y127000D02*
X177800Y120650D01*
X177800Y107950D01*
X152400Y95250D02*
X152400Y82550D01*
X158750Y76200D01*
X171450Y76200D02*
X177800Y82550D01*
X158750Y101600D02*
X152400Y95250D01*
X171450Y101600D02*
X177800Y95250D01*
X177800Y82550D01*
X152400Y69850D02*
X152400Y57150D01*
X158750Y50800D01*
X171450Y50800D02*
X177800Y57150D01*
X158750Y76200D02*
X152400Y69850D01*
X171450Y76200D02*
X177800Y69850D01*
X177800Y57150D01*
X152400Y44450D02*
X152400Y31750D01*
X158750Y25400D01*
X171450Y25400D02*
X177800Y31750D01*
X158750Y50800D02*
X152400Y44450D01*
X171450Y50800D02*
X177800Y44450D01*
X177800Y31750D01*
X152400Y19050D02*
X152400Y6350D01*
X158750Y0D01*
X171450Y0D01*
X177800Y6350D01*
X158750Y25400D02*
X152400Y19050D01*
X171450Y25400D02*
X177800Y19050D01*
X177800Y6350D01*
D10*
X136654Y271115D02*
X134747Y273022D01*
X134747Y274928D01*
X136654Y276835D01*
X146187Y276835D01*
X146187Y274928D02*
X146187Y278742D01*
X146187Y282809D02*
X134747Y282809D01*
X146187Y282809D02*
X146187Y288529D01*
X144280Y290436D01*
X140467Y290436D01*
X138560Y288529D01*
X138560Y282809D01*
X144280Y298316D02*
X146187Y302129D01*
X144280Y298316D02*
X140467Y294503D01*
X136654Y294503D01*
X134747Y296410D01*
X134747Y300223D01*
X136654Y302129D01*
X138560Y302129D01*
X140467Y300223D01*
X140467Y294503D01*
D14*
X25400Y171450D02*
X25400Y158750D01*
X25400Y171450D02*
X19050Y177800D01*
X6350Y177800D02*
X0Y171450D01*
X25400Y133350D02*
X19050Y127000D01*
X25400Y133350D02*
X25400Y146050D01*
X19050Y152400D01*
X6350Y152400D02*
X0Y146050D01*
X0Y133350D01*
X6350Y127000D01*
X19050Y152400D02*
X25400Y158750D01*
X6350Y152400D02*
X0Y158750D01*
X0Y171450D01*
X25400Y95250D02*
X25400Y82550D01*
X25400Y95250D02*
X19050Y101600D01*
X6350Y101600D02*
X0Y95250D01*
X19050Y101600D02*
X25400Y107950D01*
X25400Y120650D01*
X19050Y127000D01*
X6350Y127000D02*
X0Y120650D01*
X0Y107950D01*
X6350Y101600D01*
X25400Y57150D02*
X19050Y50800D01*
X25400Y57150D02*
X25400Y69850D01*
X19050Y76200D01*
X6350Y76200D02*
X0Y69850D01*
X0Y57150D01*
X6350Y50800D01*
X19050Y76200D02*
X25400Y82550D01*
X6350Y76200D02*
X0Y82550D01*
X0Y95250D01*
X25400Y19050D02*
X25400Y6350D01*
X25400Y19050D02*
X19050Y25400D01*
X6350Y25400D02*
X0Y19050D01*
X19050Y25400D02*
X25400Y31750D01*
X25400Y44450D01*
X19050Y50800D01*
X6350Y50800D02*
X0Y44450D01*
X0Y31750D01*
X6350Y25400D01*
X6350Y0D02*
X19050Y0D01*
X25400Y6350D01*
X6350Y0D02*
X0Y6350D01*
X0Y19050D01*
X25400Y184150D02*
X25400Y196850D01*
X19050Y203200D01*
X6350Y203200D02*
X0Y196850D01*
X19050Y177800D02*
X25400Y184150D01*
X6350Y177800D02*
X0Y184150D01*
X0Y196850D01*
X25400Y209550D02*
X25400Y222250D01*
X19050Y228600D01*
X6350Y228600D02*
X0Y222250D01*
X19050Y203200D02*
X25400Y209550D01*
X6350Y203200D02*
X0Y209550D01*
X0Y222250D01*
X25400Y234950D02*
X25400Y247650D01*
X19050Y254000D01*
X6350Y254000D02*
X0Y247650D01*
X19050Y228600D02*
X25400Y234950D01*
X6350Y228600D02*
X0Y234950D01*
X0Y247650D01*
X25400Y260350D02*
X25400Y273050D01*
X19050Y279400D01*
X6350Y279400D02*
X0Y273050D01*
X19050Y254000D02*
X25400Y260350D01*
X6350Y254000D02*
X0Y260350D01*
X0Y273050D01*
X25400Y285750D02*
X25400Y298450D01*
X19050Y304800D01*
X6350Y304800D01*
X0Y298450D01*
X19050Y279400D02*
X25400Y285750D01*
X6350Y279400D02*
X0Y285750D01*
X0Y298450D01*
D10*
X31623Y1780D02*
X33530Y-127D01*
X31623Y1780D02*
X31623Y3686D01*
X33530Y5593D01*
X43063Y5593D01*
X43063Y3686D02*
X43063Y7500D01*
X43063Y11567D02*
X31623Y11567D01*
X43063Y11567D02*
X43063Y17287D01*
X41156Y19193D01*
X37343Y19193D01*
X35436Y17287D01*
X35436Y11567D01*
X43063Y23261D02*
X43063Y30887D01*
X41156Y30887D01*
X33530Y23261D01*
X31623Y23261D01*
M02*
