G04 EAGLE Gerber RS-274X export*
G75*
%MOMM*%
%FSLAX34Y34*%
%LPD*%
%INBoard Outline*%
%IPPOS*%
%AMOC8*
5,1,8,0,0,1.08239X$1,22.5*%
G01*
%ADD10C,0.203200*%
%ADD11C,0.000000*%
%ADD12C,0.254000*%


D10*
X0Y330200D02*
X0Y0D01*
X177800Y0D01*
X177800Y330200D01*
X0Y330200D01*
D11*
X103650Y295500D02*
X103652Y295630D01*
X103658Y295760D01*
X103668Y295890D01*
X103682Y296020D01*
X103700Y296149D01*
X103722Y296277D01*
X103747Y296405D01*
X103777Y296532D01*
X103811Y296658D01*
X103848Y296782D01*
X103889Y296906D01*
X103934Y297028D01*
X103983Y297149D01*
X104035Y297268D01*
X104091Y297386D01*
X104151Y297502D01*
X104214Y297616D01*
X104281Y297728D01*
X104351Y297837D01*
X104424Y297945D01*
X104500Y298050D01*
X104580Y298153D01*
X104663Y298254D01*
X104749Y298352D01*
X104838Y298447D01*
X104930Y298540D01*
X105024Y298629D01*
X105121Y298716D01*
X105221Y298799D01*
X105324Y298880D01*
X105428Y298957D01*
X105535Y299031D01*
X105645Y299102D01*
X105756Y299170D01*
X105870Y299234D01*
X105985Y299294D01*
X106102Y299351D01*
X106221Y299404D01*
X106342Y299454D01*
X106463Y299500D01*
X106587Y299542D01*
X106711Y299580D01*
X106837Y299615D01*
X106963Y299646D01*
X107091Y299672D01*
X107219Y299695D01*
X107348Y299714D01*
X107477Y299729D01*
X107607Y299740D01*
X107737Y299747D01*
X107867Y299750D01*
X107998Y299749D01*
X108128Y299744D01*
X108258Y299735D01*
X108387Y299722D01*
X108517Y299705D01*
X108645Y299684D01*
X108773Y299659D01*
X108900Y299631D01*
X109026Y299598D01*
X109151Y299562D01*
X109275Y299521D01*
X109398Y299477D01*
X109519Y299430D01*
X109639Y299378D01*
X109757Y299323D01*
X109873Y299264D01*
X109987Y299202D01*
X110100Y299136D01*
X110210Y299067D01*
X110318Y298995D01*
X110424Y298919D01*
X110528Y298840D01*
X110629Y298758D01*
X110728Y298673D01*
X110824Y298585D01*
X110917Y298494D01*
X111007Y298400D01*
X111094Y298303D01*
X111179Y298204D01*
X111260Y298102D01*
X111338Y297998D01*
X111413Y297892D01*
X111485Y297783D01*
X111553Y297672D01*
X111618Y297559D01*
X111679Y297444D01*
X111737Y297327D01*
X111791Y297209D01*
X111842Y297089D01*
X111889Y296967D01*
X111932Y296844D01*
X111971Y296720D01*
X112007Y296595D01*
X112038Y296468D01*
X112066Y296341D01*
X112090Y296213D01*
X112110Y296084D01*
X112126Y295955D01*
X112138Y295825D01*
X112146Y295695D01*
X112150Y295565D01*
X112150Y295435D01*
X112146Y295305D01*
X112138Y295175D01*
X112126Y295045D01*
X112110Y294916D01*
X112090Y294787D01*
X112066Y294659D01*
X112038Y294532D01*
X112007Y294405D01*
X111971Y294280D01*
X111932Y294156D01*
X111889Y294033D01*
X111842Y293911D01*
X111791Y293791D01*
X111737Y293673D01*
X111679Y293556D01*
X111618Y293441D01*
X111553Y293328D01*
X111485Y293217D01*
X111413Y293108D01*
X111338Y293002D01*
X111260Y292898D01*
X111179Y292796D01*
X111094Y292697D01*
X111007Y292600D01*
X110917Y292506D01*
X110824Y292415D01*
X110728Y292327D01*
X110629Y292242D01*
X110528Y292160D01*
X110424Y292081D01*
X110318Y292005D01*
X110210Y291933D01*
X110100Y291864D01*
X109987Y291798D01*
X109873Y291736D01*
X109757Y291677D01*
X109639Y291622D01*
X109519Y291570D01*
X109398Y291523D01*
X109275Y291479D01*
X109151Y291438D01*
X109026Y291402D01*
X108900Y291369D01*
X108773Y291341D01*
X108645Y291316D01*
X108517Y291295D01*
X108387Y291278D01*
X108258Y291265D01*
X108128Y291256D01*
X107998Y291251D01*
X107867Y291250D01*
X107737Y291253D01*
X107607Y291260D01*
X107477Y291271D01*
X107348Y291286D01*
X107219Y291305D01*
X107091Y291328D01*
X106963Y291354D01*
X106837Y291385D01*
X106711Y291420D01*
X106587Y291458D01*
X106463Y291500D01*
X106342Y291546D01*
X106221Y291596D01*
X106102Y291649D01*
X105985Y291706D01*
X105870Y291766D01*
X105756Y291830D01*
X105645Y291898D01*
X105535Y291969D01*
X105428Y292043D01*
X105324Y292120D01*
X105221Y292201D01*
X105121Y292284D01*
X105024Y292371D01*
X104930Y292460D01*
X104838Y292553D01*
X104749Y292648D01*
X104663Y292746D01*
X104580Y292847D01*
X104500Y292950D01*
X104424Y293055D01*
X104351Y293163D01*
X104281Y293272D01*
X104214Y293384D01*
X104151Y293498D01*
X104091Y293614D01*
X104035Y293732D01*
X103983Y293851D01*
X103934Y293972D01*
X103889Y294094D01*
X103848Y294218D01*
X103811Y294342D01*
X103777Y294468D01*
X103747Y294595D01*
X103722Y294723D01*
X103700Y294851D01*
X103682Y294980D01*
X103668Y295110D01*
X103658Y295240D01*
X103652Y295370D01*
X103650Y295500D01*
X65650Y295500D02*
X65652Y295630D01*
X65658Y295760D01*
X65668Y295890D01*
X65682Y296020D01*
X65700Y296149D01*
X65722Y296277D01*
X65747Y296405D01*
X65777Y296532D01*
X65811Y296658D01*
X65848Y296782D01*
X65889Y296906D01*
X65934Y297028D01*
X65983Y297149D01*
X66035Y297268D01*
X66091Y297386D01*
X66151Y297502D01*
X66214Y297616D01*
X66281Y297728D01*
X66351Y297837D01*
X66424Y297945D01*
X66500Y298050D01*
X66580Y298153D01*
X66663Y298254D01*
X66749Y298352D01*
X66838Y298447D01*
X66930Y298540D01*
X67024Y298629D01*
X67121Y298716D01*
X67221Y298799D01*
X67324Y298880D01*
X67428Y298957D01*
X67535Y299031D01*
X67645Y299102D01*
X67756Y299170D01*
X67870Y299234D01*
X67985Y299294D01*
X68102Y299351D01*
X68221Y299404D01*
X68342Y299454D01*
X68463Y299500D01*
X68587Y299542D01*
X68711Y299580D01*
X68837Y299615D01*
X68963Y299646D01*
X69091Y299672D01*
X69219Y299695D01*
X69348Y299714D01*
X69477Y299729D01*
X69607Y299740D01*
X69737Y299747D01*
X69867Y299750D01*
X69998Y299749D01*
X70128Y299744D01*
X70258Y299735D01*
X70387Y299722D01*
X70517Y299705D01*
X70645Y299684D01*
X70773Y299659D01*
X70900Y299631D01*
X71026Y299598D01*
X71151Y299562D01*
X71275Y299521D01*
X71398Y299477D01*
X71519Y299430D01*
X71639Y299378D01*
X71757Y299323D01*
X71873Y299264D01*
X71987Y299202D01*
X72100Y299136D01*
X72210Y299067D01*
X72318Y298995D01*
X72424Y298919D01*
X72528Y298840D01*
X72629Y298758D01*
X72728Y298673D01*
X72824Y298585D01*
X72917Y298494D01*
X73007Y298400D01*
X73094Y298303D01*
X73179Y298204D01*
X73260Y298102D01*
X73338Y297998D01*
X73413Y297892D01*
X73485Y297783D01*
X73553Y297672D01*
X73618Y297559D01*
X73679Y297444D01*
X73737Y297327D01*
X73791Y297209D01*
X73842Y297089D01*
X73889Y296967D01*
X73932Y296844D01*
X73971Y296720D01*
X74007Y296595D01*
X74038Y296468D01*
X74066Y296341D01*
X74090Y296213D01*
X74110Y296084D01*
X74126Y295955D01*
X74138Y295825D01*
X74146Y295695D01*
X74150Y295565D01*
X74150Y295435D01*
X74146Y295305D01*
X74138Y295175D01*
X74126Y295045D01*
X74110Y294916D01*
X74090Y294787D01*
X74066Y294659D01*
X74038Y294532D01*
X74007Y294405D01*
X73971Y294280D01*
X73932Y294156D01*
X73889Y294033D01*
X73842Y293911D01*
X73791Y293791D01*
X73737Y293673D01*
X73679Y293556D01*
X73618Y293441D01*
X73553Y293328D01*
X73485Y293217D01*
X73413Y293108D01*
X73338Y293002D01*
X73260Y292898D01*
X73179Y292796D01*
X73094Y292697D01*
X73007Y292600D01*
X72917Y292506D01*
X72824Y292415D01*
X72728Y292327D01*
X72629Y292242D01*
X72528Y292160D01*
X72424Y292081D01*
X72318Y292005D01*
X72210Y291933D01*
X72100Y291864D01*
X71987Y291798D01*
X71873Y291736D01*
X71757Y291677D01*
X71639Y291622D01*
X71519Y291570D01*
X71398Y291523D01*
X71275Y291479D01*
X71151Y291438D01*
X71026Y291402D01*
X70900Y291369D01*
X70773Y291341D01*
X70645Y291316D01*
X70517Y291295D01*
X70387Y291278D01*
X70258Y291265D01*
X70128Y291256D01*
X69998Y291251D01*
X69867Y291250D01*
X69737Y291253D01*
X69607Y291260D01*
X69477Y291271D01*
X69348Y291286D01*
X69219Y291305D01*
X69091Y291328D01*
X68963Y291354D01*
X68837Y291385D01*
X68711Y291420D01*
X68587Y291458D01*
X68463Y291500D01*
X68342Y291546D01*
X68221Y291596D01*
X68102Y291649D01*
X67985Y291706D01*
X67870Y291766D01*
X67756Y291830D01*
X67645Y291898D01*
X67535Y291969D01*
X67428Y292043D01*
X67324Y292120D01*
X67221Y292201D01*
X67121Y292284D01*
X67024Y292371D01*
X66930Y292460D01*
X66838Y292553D01*
X66749Y292648D01*
X66663Y292746D01*
X66580Y292847D01*
X66500Y292950D01*
X66424Y293055D01*
X66351Y293163D01*
X66281Y293272D01*
X66214Y293384D01*
X66151Y293498D01*
X66091Y293614D01*
X66035Y293732D01*
X65983Y293851D01*
X65934Y293972D01*
X65889Y294094D01*
X65848Y294218D01*
X65811Y294342D01*
X65777Y294468D01*
X65747Y294595D01*
X65722Y294723D01*
X65700Y294851D01*
X65682Y294980D01*
X65668Y295110D01*
X65658Y295240D01*
X65652Y295370D01*
X65650Y295500D01*
D12*
X0Y0D02*
X177800Y0D01*
X177800Y330200D01*
X0Y330200D01*
X0Y0D01*
X107621Y291250D02*
X107069Y291323D01*
X106531Y291467D01*
X106016Y291680D01*
X105534Y291959D01*
X105092Y292298D01*
X104698Y292692D01*
X104359Y293134D01*
X104080Y293616D01*
X103867Y294131D01*
X103723Y294669D01*
X103650Y295221D01*
X103650Y295779D01*
X103723Y296331D01*
X103867Y296869D01*
X104080Y297384D01*
X104359Y297866D01*
X104698Y298308D01*
X105092Y298702D01*
X105534Y299041D01*
X106016Y299320D01*
X106531Y299533D01*
X107069Y299677D01*
X107621Y299750D01*
X108179Y299750D01*
X108731Y299677D01*
X109269Y299533D01*
X109784Y299320D01*
X110266Y299041D01*
X110708Y298702D01*
X111102Y298308D01*
X111441Y297866D01*
X111720Y297384D01*
X111933Y296869D01*
X112077Y296331D01*
X112150Y295779D01*
X112150Y295221D01*
X112077Y294669D01*
X111933Y294131D01*
X111720Y293616D01*
X111441Y293134D01*
X111102Y292692D01*
X110708Y292298D01*
X110266Y291959D01*
X109784Y291680D01*
X109269Y291467D01*
X108731Y291323D01*
X108179Y291250D01*
X107621Y291250D01*
X69621Y291250D02*
X69069Y291323D01*
X68531Y291467D01*
X68016Y291680D01*
X67534Y291959D01*
X67092Y292298D01*
X66698Y292692D01*
X66359Y293134D01*
X66080Y293616D01*
X65867Y294131D01*
X65723Y294669D01*
X65650Y295221D01*
X65650Y295779D01*
X65723Y296331D01*
X65867Y296869D01*
X66080Y297384D01*
X66359Y297866D01*
X66698Y298308D01*
X67092Y298702D01*
X67534Y299041D01*
X68016Y299320D01*
X68531Y299533D01*
X69069Y299677D01*
X69621Y299750D01*
X70179Y299750D01*
X70731Y299677D01*
X71269Y299533D01*
X71784Y299320D01*
X72266Y299041D01*
X72708Y298702D01*
X73102Y298308D01*
X73441Y297866D01*
X73720Y297384D01*
X73933Y296869D01*
X74077Y296331D01*
X74150Y295779D01*
X74150Y295221D01*
X74077Y294669D01*
X73933Y294131D01*
X73720Y293616D01*
X73441Y293134D01*
X73102Y292692D01*
X72708Y292298D01*
X72266Y291959D01*
X71784Y291680D01*
X71269Y291467D01*
X70731Y291323D01*
X70179Y291250D01*
X69621Y291250D01*
M02*
