G04 EAGLE Gerber RS-274X export*
G75*
%MOMM*%
%FSLAX34Y34*%
%LPD*%
%INSolderpaste Top*%
%IPPOS*%
%AMOC8*
5,1,8,0,0,1.08239X$1,22.5*%
G01*
%ADD10R,1.000000X1.100000*%
%ADD11R,1.600000X1.400000*%
%ADD12R,1.100000X1.000000*%
%ADD13R,0.800000X0.800000*%
%ADD14R,1.200000X0.550000*%
%ADD15C,0.255000*%
%ADD16R,1.900000X1.100000*%
%ADD17R,0.400000X1.400000*%
%ADD18R,1.800000X1.500000*%
%ADD19R,1.500000X0.700000*%
%ADD20R,1.000000X1.800000*%
%ADD21R,0.630000X0.830000*%
%ADD22R,0.635000X1.270000*%
%ADD23R,2.438400X2.286000*%


D10*
X44577Y70240D03*
X44577Y87240D03*
D11*
X50673Y204516D03*
X50673Y232516D03*
D12*
X42173Y264998D03*
X59173Y264998D03*
D13*
X58173Y251054D03*
X43173Y251054D03*
D12*
X42300Y279400D03*
X59300Y279400D03*
D10*
X132080Y72780D03*
X132080Y89780D03*
D12*
X135881Y185572D03*
X118881Y185572D03*
D10*
X132080Y9280D03*
X132080Y26280D03*
D13*
X132080Y40760D03*
X132080Y55760D03*
D14*
X104365Y209042D03*
X104365Y218542D03*
X104365Y228042D03*
X78363Y228042D03*
X78363Y209042D03*
D11*
X127229Y204034D03*
X127229Y232034D03*
D15*
X80971Y182808D02*
X84823Y178956D01*
X84505Y178638D01*
X80653Y182490D01*
X80971Y182808D01*
X82083Y181060D02*
X82719Y181060D01*
X77485Y179322D02*
X81337Y175470D01*
X81019Y175152D01*
X77167Y179004D01*
X77485Y179322D01*
X78597Y177574D02*
X79233Y177574D01*
X73998Y175836D02*
X77850Y171984D01*
X77532Y171666D01*
X73680Y175518D01*
X73998Y175836D01*
X75110Y174088D02*
X75746Y174088D01*
X70512Y172350D02*
X74364Y168498D01*
X74046Y168180D01*
X70194Y172032D01*
X70512Y172350D01*
X71624Y170602D02*
X72260Y170602D01*
X67026Y168864D02*
X70878Y165012D01*
X70560Y164694D01*
X66708Y168546D01*
X67026Y168864D01*
X68138Y167116D02*
X68774Y167116D01*
X63540Y165378D02*
X67392Y161526D01*
X67074Y161208D01*
X63222Y165060D01*
X63540Y165378D01*
X64652Y163630D02*
X65288Y163630D01*
X59736Y161574D02*
X63588Y157722D01*
X59736Y161574D02*
X60054Y161892D01*
X63906Y158040D01*
X63588Y157722D01*
X61802Y160144D02*
X61166Y160144D01*
X56250Y158088D02*
X60102Y154236D01*
X56250Y158088D02*
X56568Y158406D01*
X60420Y154554D01*
X60102Y154236D01*
X58316Y156658D02*
X57680Y156658D01*
X52764Y154602D02*
X56616Y150750D01*
X52764Y154602D02*
X53082Y154920D01*
X56934Y151068D01*
X56616Y150750D01*
X54830Y153172D02*
X54194Y153172D01*
X49278Y151115D02*
X53130Y147263D01*
X49278Y151115D02*
X49596Y151433D01*
X53448Y147581D01*
X53130Y147263D01*
X51344Y149685D02*
X50708Y149685D01*
X45792Y147629D02*
X49644Y143777D01*
X45792Y147629D02*
X46110Y147947D01*
X49962Y144095D01*
X49644Y143777D01*
X47858Y146199D02*
X47222Y146199D01*
X49644Y135623D02*
X45792Y131771D01*
X49644Y135623D02*
X49962Y135305D01*
X46110Y131453D01*
X45792Y131771D01*
X47896Y133875D02*
X48532Y133875D01*
X53130Y132137D02*
X49278Y128285D01*
X53130Y132137D02*
X53448Y131819D01*
X49596Y127967D01*
X49278Y128285D01*
X51382Y130389D02*
X52018Y130389D01*
X56616Y128650D02*
X52764Y124798D01*
X56616Y128650D02*
X56934Y128332D01*
X53082Y124480D01*
X52764Y124798D01*
X54868Y126902D02*
X55504Y126902D01*
X60102Y125164D02*
X56250Y121312D01*
X60102Y125164D02*
X60420Y124846D01*
X56568Y120994D01*
X56250Y121312D01*
X58354Y123416D02*
X58990Y123416D01*
X63588Y121678D02*
X59736Y117826D01*
X63588Y121678D02*
X63906Y121360D01*
X60054Y117508D01*
X59736Y117826D01*
X61840Y119930D02*
X62476Y119930D01*
X67074Y118192D02*
X63222Y114340D01*
X67074Y118192D02*
X67392Y117874D01*
X63540Y114022D01*
X63222Y114340D01*
X65326Y116444D02*
X65962Y116444D01*
X70878Y114388D02*
X67026Y110536D01*
X66708Y110854D01*
X70560Y114706D01*
X70878Y114388D01*
X69448Y112958D02*
X68812Y112958D01*
X74364Y110902D02*
X70512Y107050D01*
X70194Y107368D01*
X74046Y111220D01*
X74364Y110902D01*
X72934Y109472D02*
X72298Y109472D01*
X77850Y107416D02*
X73998Y103564D01*
X73680Y103882D01*
X77532Y107734D01*
X77850Y107416D01*
X76420Y105986D02*
X75784Y105986D01*
X81337Y103930D02*
X77485Y100078D01*
X77167Y100396D01*
X81019Y104248D01*
X81337Y103930D01*
X79907Y102500D02*
X79271Y102500D01*
X84823Y100444D02*
X80971Y96592D01*
X80653Y96910D01*
X84505Y100762D01*
X84823Y100444D01*
X83393Y99014D02*
X82757Y99014D01*
X92977Y100444D02*
X96829Y96592D01*
X92977Y100444D02*
X93295Y100762D01*
X97147Y96910D01*
X96829Y96592D01*
X95043Y99014D02*
X94407Y99014D01*
X96463Y103930D02*
X100315Y100078D01*
X96463Y103930D02*
X96781Y104248D01*
X100633Y100396D01*
X100315Y100078D01*
X98529Y102500D02*
X97893Y102500D01*
X99950Y107416D02*
X103802Y103564D01*
X99950Y107416D02*
X100268Y107734D01*
X104120Y103882D01*
X103802Y103564D01*
X102016Y105986D02*
X101380Y105986D01*
X103436Y110902D02*
X107288Y107050D01*
X103436Y110902D02*
X103754Y111220D01*
X107606Y107368D01*
X107288Y107050D01*
X105502Y109472D02*
X104866Y109472D01*
X106922Y114388D02*
X110774Y110536D01*
X106922Y114388D02*
X107240Y114706D01*
X111092Y110854D01*
X110774Y110536D01*
X108988Y112958D02*
X108352Y112958D01*
X110408Y117874D02*
X114260Y114022D01*
X110408Y117874D02*
X110726Y118192D01*
X114578Y114340D01*
X114260Y114022D01*
X112474Y116444D02*
X111838Y116444D01*
X114212Y121678D02*
X118064Y117826D01*
X117746Y117508D01*
X113894Y121360D01*
X114212Y121678D01*
X115324Y119930D02*
X115960Y119930D01*
X117698Y125164D02*
X121550Y121312D01*
X121232Y120994D01*
X117380Y124846D01*
X117698Y125164D01*
X118810Y123416D02*
X119446Y123416D01*
X121184Y128650D02*
X125036Y124798D01*
X124718Y124480D01*
X120866Y128332D01*
X121184Y128650D01*
X122296Y126902D02*
X122932Y126902D01*
X124670Y132137D02*
X128522Y128285D01*
X128204Y127967D01*
X124352Y131819D01*
X124670Y132137D01*
X125782Y130389D02*
X126418Y130389D01*
X128156Y135623D02*
X132008Y131771D01*
X131690Y131453D01*
X127838Y135305D01*
X128156Y135623D01*
X129268Y133875D02*
X129904Y133875D01*
X128156Y143777D02*
X132008Y147629D01*
X128156Y143777D02*
X127838Y144095D01*
X131690Y147947D01*
X132008Y147629D01*
X130578Y146199D02*
X129942Y146199D01*
X128522Y151115D02*
X124670Y147263D01*
X124352Y147581D01*
X128204Y151433D01*
X128522Y151115D01*
X127092Y149685D02*
X126456Y149685D01*
X125036Y154602D02*
X121184Y150750D01*
X120866Y151068D01*
X124718Y154920D01*
X125036Y154602D01*
X123606Y153172D02*
X122970Y153172D01*
X121550Y158088D02*
X117698Y154236D01*
X117380Y154554D01*
X121232Y158406D01*
X121550Y158088D01*
X120120Y156658D02*
X119484Y156658D01*
X118064Y161574D02*
X114212Y157722D01*
X113894Y158040D01*
X117746Y161892D01*
X118064Y161574D01*
X116634Y160144D02*
X115998Y160144D01*
X114578Y165060D02*
X110726Y161208D01*
X110408Y161526D01*
X114260Y165378D01*
X114578Y165060D01*
X113148Y163630D02*
X112512Y163630D01*
X110774Y168864D02*
X106922Y165012D01*
X110774Y168864D02*
X111092Y168546D01*
X107240Y164694D01*
X106922Y165012D01*
X109026Y167116D02*
X109662Y167116D01*
X107288Y172350D02*
X103436Y168498D01*
X107288Y172350D02*
X107606Y172032D01*
X103754Y168180D01*
X103436Y168498D01*
X105540Y170602D02*
X106176Y170602D01*
X103802Y175836D02*
X99950Y171984D01*
X103802Y175836D02*
X104120Y175518D01*
X100268Y171666D01*
X99950Y171984D01*
X102054Y174088D02*
X102690Y174088D01*
X100315Y179322D02*
X96463Y175470D01*
X100315Y179322D02*
X100633Y179004D01*
X96781Y175152D01*
X96463Y175470D01*
X98567Y177574D02*
X99203Y177574D01*
X96829Y182808D02*
X92977Y178956D01*
X96829Y182808D02*
X97147Y182490D01*
X93295Y178638D01*
X92977Y178956D01*
X95081Y181060D02*
X95717Y181060D01*
D16*
X70400Y10090D03*
X107400Y33090D03*
X70400Y33090D03*
X107400Y10090D03*
D12*
X115180Y48260D03*
X98180Y48260D03*
X78350Y48260D03*
X61350Y48260D03*
X57039Y181356D03*
X40039Y181356D03*
X135627Y250342D03*
X118627Y250342D03*
D10*
X45720Y9280D03*
X45720Y26280D03*
D13*
X45720Y40760D03*
X45720Y55760D03*
D12*
X135500Y264871D03*
X118500Y264871D03*
X135500Y279400D03*
X118500Y279400D03*
D17*
X88900Y290500D03*
X95400Y290500D03*
X101900Y290500D03*
X82400Y290500D03*
X75900Y290500D03*
D18*
X125740Y317500D03*
D19*
X88900Y317500D03*
D18*
X52060Y317500D03*
D20*
X102900Y247650D03*
X74900Y247650D03*
D21*
X100400Y265684D03*
X77400Y265684D03*
D22*
X16819Y317500D03*
X8581Y317500D03*
D23*
X12700Y317500D03*
M02*
