%
M48
M72
T01C0.0100
T02C0.0335
T03C0.0400
T04C0.0500
T05C0.0700
%
T01
X3481Y7257
X2831Y8357
X2831Y8907
X2831Y9507
X3725Y10389
X4531Y11557
X5525Y12989
X5743Y14588
X5746Y14965
X4990Y15021
X4590Y15146
X4470Y15531
X4289Y15904
X3386Y15703
X3394Y16572
X3203Y17307
X3531Y18307
X3837Y19336
X4461Y19529
X4840Y19542
X5479Y19379
X6216Y19542
X6617Y20435
X6401Y21187
X5310Y21926
X5056Y22677
X4616Y23997
X3281Y23307
X3246Y21749
X3387Y21093
X4461Y21328
X4447Y20354
X5931Y17807
X5851Y17417
X5431Y17407
X6481Y15857
X6497Y15256
X6729Y14349
X7899Y12676
X7596Y12303
X7125Y11639
X7725Y10289
X8275Y9739
X8275Y9189
X8275Y8589
X7975Y7889
X7281Y7357
X7281Y6807
X6481Y7907
X5831Y8807
X5531Y8807
X5531Y9107
X5831Y9107
X6575Y9739
X6731Y9107
X4875Y9739
X4531Y8907
X3312Y12985
X4236Y14494
X7297Y16404
X7331Y16777
X7634Y17744
X7396Y18044
X7781Y19157
X7700Y19704
X7993Y20804
X7421Y23397
X7091Y23707
X6681Y23407
X8556Y24457
T02
X6179Y23441
X4683Y23441
T03
X2431Y23307
X2431Y22307
X2431Y21307
X2431Y20307
X2431Y19307
X2431Y18307
X2431Y17307
X2431Y16307
X2431Y15307
X2431Y14307
X2431Y13307
X2431Y12307
X3931Y11307
X5181Y11307
X8431Y12307
X8431Y13307
X8431Y14307
X8431Y15307
X8431Y16307
X8431Y17307
X8431Y18307
X8431Y19307
X8431Y20307
X8431Y21307
X8431Y22307
X8431Y23307
T04
X5431Y4707
T05
X4427Y3703
X4427Y5711
X6435Y5711
X6435Y3703
M30
